<?xml version="1.0" encoding="utf-8"?>
<!-- Generator: Adobe Illustrator 19.2.1, SVG Export Plug-In . SVG Version: 6.00 Build 0)  -->
<svg version="1.1" id="Layer_1" xmlns="http://www.w3.org/2000/svg" xmlns:xlink="http://www.w3.org/1999/xlink" x="0px" y="0px"
	 width="2698px" height="1464px" viewBox="0 0 2698 1464" style="enable-background:new 0 0 2698 1464;" xml:space="preserve">
<style type="text/css">
	.st0{fill:none;}
	.st1{fill:#FFFFFF;}
</style>
<g>
	<path class="st0" d="M1,1465C1,977,1,489,1,1c899.3,0,1798.7,0,2698,0c0,488,0,976,0,1464C1799.7,1465,900.3,1465,1,1465z
		 M2337.4,1224.6c4.4-0.2,8.5-0.6,12.6-0.7c11.5-0.1,23-0.3,34.5-0.2c5.7,0.1,10.3-2.6,12.2-7.2c3.8-9.2,6.4-18.8,9.3-28.4
		c1.5-5.1,2.4-10.3,4.2-15.3c2.9-8.3,6.4-16.4,9.3-24.7c3.1-8.8,5.6-17.7,8.5-26.5c2.3-7.1,5.1-14.1,7-21.2c3.5-13,5.9-26.3,13-38.1
		c12-19.9,15.3-42.7,22-64.4c3.2-10.5,4.2-21.8,6.2-32.7c5.5-29.7,10.6-59.6,16.8-89.2c4.5-21.4,5.6-42.8,5.6-64.5
		c-0.1-28.1-2.5-56.4,3.8-84.1c5.7-25,5.6-50.5,8.1-75.8c1.8-17.8,1-35.9,1.5-53.9c0.2-6.6,0.8-13.2,1.3-19.8
		c0.5-5.8,1.6-11.6,1.6-17.4c-0.2-19.4,1.1-38.8-3.6-58.1c-2.1-8.7-0.5-18.4-0.4-27.7c0.1-16.1,0.3-32.2,0.7-48.4
		c0.2-7.4,1.6-14.8-1-22.1c-0.2-0.6,0-1.3,0.1-2c0.7-5.8,2.6-11.4,0.9-17.6c-1.3-4.8-0.3-10.2-0.9-15.2c-0.4-2.9-2.5-5.5-2.8-8.4
		c-0.6-7.8-0.7-15.7-0.7-23.5c0-3,1-6,0.7-8.9c-1.5-19.1-3.2-38.3-4.8-57.4c-0.2-2.3-0.5-4.6-1.1-6.9c-1.6-7.2-5.2-9.5-12.6-8.4
		c-1.9,0.3-4.1,0.6-5.8-0.1c-3.9-1.6-6.9-0.4-10.4,1.4c-3.1,1.6-6.8,2.8-10.3,2.8c-10.6-0.2-21.4-0.3-31.8-2
		c-10.4-1.6-16.6,4.2-23.1,10.1c-7.5,6.8-14.5,14.2-21.8,21.3c-7.5,7.2-15.3,14-22.6,21.4c-9.1,9.1-17.8,18.7-26.9,27.9
		c-5.6,5.6-11.5,10.9-17.3,16.4c-11.1,10.5-22.2,21.1-33.3,31.7c-5.7,5.4-11.7,10.4-17,16.1c-7.8,8.3-14.9,17.2-22.5,25.7
		c-7.8,8.7-16.3,16.7-23.8,25.6c-8.4,9.9-16,20.5-24,30.7c-0.4,0.5-1,0.9-1.4,1.4c-5.2,6.7-10.5,13.4-15.5,20.2
		c-2.5,3.5-4.3,7.5-6.9,10.9c-3.6,4.5-7.8,8.5-11.5,12.9c-7.4,9.1-13.8,19.3-22.1,27.5c-10.5,10.6-17.6,23.2-25,35.7
		c-5.3,9-14.1,10.4-20.2,2.5c-2.5-3.3-4.4-7.1-6.3-10.8c-0.9-1.7-1.4-3.7-2.1-5.6c-1.4-3.7-2.4-7.6-4.2-11.2
		c-4.6-9.2-9.5-18.3-14.3-27.4c-0.6-1.2-0.8-2.5-1.2-3.8c-3.2-8.9-5.9-18.1-9.8-26.8c-5.7-12.6-9.9-25.8-17.6-37.7
		c-6.6-10.2-11.2-21.6-17.1-32.3c-5.5-10-11.8-19.6-17.5-29.6c-4.8-8.5-9.1-17.2-13.5-25.9c-2-3.9-3.2-8.4-5.7-11.9
		c-7.9-11.4-16.1-22.6-24.4-33.8c-3.1-4.3-6.7-8.2-10.2-12.2c-11.3-12.9-19.9-28.2-34.2-38.6c-10-7.4-19.2-15.9-29.1-23.4
		c-8.7-6.7-17.8-12.8-26.8-19.1c-5.1-3.6-9.9-8.1-15.5-10.1c-6-2.1-12.9-2.3-19.4-2.2c-6.9,0.1-11.2,4.9-13.3,11.1
		c-3.1,9.3-5.6,18.9-8.6,28.3c-5.4,16.6-8.7,33.7-11.3,51c-2.9,18.5-5.4,37.1-8.6,55.6c-4.1,24.1-7.6,48.3-8.1,72.8
		c-0.1,5.3-1.6,10.5-2.3,15.8c-1.2,9.7-2.8,19.4-3.2,29.1c-0.7,18.1,0,36.3-1.1,54.5c-1,17.4-3.5,34.7-5.5,52
		c-1.4,11.7-2.8,23.5-4.5,35.1c-1.7,11.7-4.7,23.2-5.6,34.9c-1.6,20.6-1.9,41.3-3.2,61.9c-0.7,11.1-1.9,22.1-3.3,33.2
		c-0.7,5.6-2.8,11-3.2,16.6c-1.9,24.4-3.3,48.8-5.2,73.1c-0.6,7.8-1.5,15.6-3.2,23.2c-4.3,19.4-7.5,38.8-7.9,58.8
		c-0.6,26.1-1.8,52.2-2.8,78.2c-0.6,16.6-1.8,33.3-1.6,49.9c0.4,28.7-1.7,57.2-5,85.7c-0.4,3.8,0.8,6.3,4.3,8.2
		c4,2.2,9.1,4,11.5,7.5c6.6,9.6,15.9,16,24.4,23.4c4,3.4,9.1,5.7,13.9,8c3.6,1.7,7.6,3.2,11.5,3.8c8.7,1.4,17.4,2,26.1,3.4
		c7.3,1.2,11.1-0.7,12.3-7.2c1.2-6.1,2.2-12.3,3.5-18.4c1.2-5.8,1.4-12.2,4-17.3c9.5-18.7,14.1-39.1,19.9-59
		c2.4-8.2,2.4-17.1,3.8-25.6c2-11.6,4.6-23.2,6.3-34.8c1.1-7.7,1.2-15.6,4.8-22.8c0.3-0.7,0.5-1.7,0.2-2.3
		c-2.9-5.6-0.4-10.1,2.5-14.7c1.1-1.7,1-4.2,1.1-6.3c0.2-3.9-0.5-8,0.2-11.8c2.1-12.6,4.5-25.1,6.8-37.7c0.7-3.9,1.4-7.8,2-11.8
		c0.6-3.4,1.4-6.9,1.5-10.3c0.4-14,0.2-28,0.8-42c0.5-12.1,1.9-24.2,2.4-36.3c0.5-12.6,0-25.3,0.5-38c0.5-12.6,2-25.2,2.6-37.8
		c0.8-14.8,1-29.6,1.7-44.4c0.9-19.1,2.7-38.2,3.1-57.3c0.5-26.4,0.1-52.9,0.1-80.8c3.2,2.1,6.3,3.6,8.5,5.8
		c3.2,3.2,5.4,7.4,8.6,10.6c4,4.2,8.3,8.2,12.9,11.7c4.4,3.4,6.1,8.8,10.5,12.5c7.8,6.7,14.2,15,21.3,22.5
		c9.4,9.8,19,19.4,28.5,29.1c2.9,2.9,6.5,5.5,8.4,8.9c8.4,14.7,23.7,23.1,33.6,36.5c4.8,6.5,11.3,11.9,17.2,17.6
		c1.5,1.5,3.5,2.5,5.1,3.9c3.6,3.1,7.2,6.3,10.6,9.6c4.7,4.5,8.6,10,13.9,13.6c3.3,2.3,8.5,2.1,12.8,2.6c6.4,0.7,12.8,0.7,19.1,1.6
		c4.7,0.7,9.2,2.4,13.8,3.2c1.7,0.3,4.2-0.4,5.5-1.5c6-5,11.5-10.5,17.4-15.6c4.4-3.9,8.7-8.3,13.9-10.8c3.3-1.6,4.8-2.8,4.3-5.7
		c2.3-1.5,4.6-2.5,6.4-4c3.7-3.1,7.1-6.8,10.9-9.8c8.7-6.9,17.7-13.5,26.3-20.4c4.7-3.7,8.6-8.4,13.5-11.8
		c11.4-7.9,19.6-18.9,28.5-29.1c8.5-9.8,16.6-19.9,25-29.7c6.6-7.7,13.2-15.3,20-22.8c4.2-4.7,8.1-10.1,13.3-13.4
		c10.3-6.6,18.5-15,25.6-24.8c7.3-10.1,15.1-19.9,22.9-29.7c0.9-1.2,3-2,4.5-2c2.2,0,4.3,0.9,6.7,1.5c0.9,2.2,2.8,4.8,2.9,7.5
		c0.2,5.2-0.1,10.5-1,15.6c-0.8,4.5-1.9,8.7-1.5,13.5c0.6,8.3,0,16.7-0.5,25.1c-0.4,6.6-1.5,13.1-2.3,19.7
		c-0.6,5.6-1.3,11.1-1.7,16.7c-0.2,3.6,0.5,7.2,0.1,10.8c-0.8,9.4-3.4,19-2.6,28.2c0.9,10.1-3.4,19.8-0.5,29.7
		c0.1,0.3-0.1,0.7-0.1,1c-0.9,6.8-2.2,13.5-2.7,20.3c-1.3,17.2-1.6,34.5-5.9,51.4c-1.8,7.2-2,14.8-2.8,22.2
		c-1,9.1-2.6,18.1-2.8,27.2c-0.5,35-0.5,70-0.7,105c0,2.5,0.1,5.1-0.4,7.5c-2.7,12.5-5.7,25-8.4,37.5c-3.8,17.9-7.5,35.8-11,53.7
		c-1.8,9-3.3,18-4.6,27c-2.1,14.7-3.8,29.4-5.7,44c-1.5,11-3.7,22-4.4,33c-0.5,8.5-2.2,16.4-5.8,24c-1.8,3.8-1.5,6.9,2.2,9.6
		c1.5,1.1,3,2.8,3.6,4.6c2.6,7.7,8.7,12.3,14.8,16.3C2327.7,1208.4,2333.6,1215.5,2337.4,1224.6z M1250.4,188.1
		c-11.3-0.3-19.6,0.3-23.9,8.1c-4,7.2-7.3,15.1-9.2,23.1c-2.7,11.4-4.1,23.1-5.7,34.7c-0.5,3.9,0.3,8-0.3,11.8
		c-1.5,9.4-3.8,18.7-5.1,28.1c-1.1,7.7-1.1,15.5-1.9,23.2c-1.3,13-2.9,26-4.4,39c-1.1,8.9-2.1,17.8-3.5,26.6
		c-1.6,10.3-3.4,20.5-5.3,30.7c-2.4,13-4.8,26.1-7.6,39c-2.9,13.5-6.3,26.8-9.3,40.2c-2.5,11.3-4.8,22.6-7.1,33.9
		c-0.9,4.3-1.5,8.7-2.5,13c-3.5,14.1-7.3,28.2-10.8,42.4c-1.4,5.6-2.3,11.4-3.9,17c-2.1,7.2-4.8,14.3-6.8,21.5
		c-2.4,8.6-4.3,17.4-6.5,26c-2.6,10.8-5.5,21.5-7.8,32.4c-3.3,15.6-5.6,31.3-9.9,46.7c-1.4,4.9-1.8,10.1-3.1,15.1
		c-2.8,11.5-6,22.9-8.7,34.5c-2.3,9.9-3.9,20-6.2,30c-1.8,7.7-4.2,15.3-6.5,22.9c-2,6.4-5.5,12.3-4.8,19.6c0.3,2.7-3.3,3.5-5.3,1.6
		c-2.2-2.1-4.2-4.9-5.1-7.7c-3.5-11-6.5-22.2-9.7-33.3c-0.2-0.6-0.6-1.2-0.8-1.8c-4-10.3-8.1-20.6-12-30.9c-0.7-1.9-1-4-1.7-6
		c-1.9-5.3-5.1-10.4-5.8-15.8c-1.5-12.4-6.5-23.9-11.7-34.6c-9.2-19-13.6-39.6-21.8-58.8c-1.2-2.9-3.1-5.8-5.3-8.1
		c-6.1-6.4-12.9-12.1-18.7-18.6c-6.9-7.8-12.8-8.5-20.2-1.2c-6.5,6.4-13.1,12.8-19.2,19.6c-5.9,6.6-11.4,13.6-16.8,20.5
		c-4.1,5.2-7.9,10.6-11.8,15.8c-5.6,7.5-11.6,14.7-16.9,22.5c-7.4,10.9-14,22.4-21.5,33.2c-6.2,9-13.2,17.4-20.1,25.9
		c-1.3,1.6-3.9,3.4-5.4,3c-1.7-0.4-3.7-3-4.2-4.9c-1.3-4.7-2.1-9.6-2.7-14.4c-0.8-6.5-1-13.2-1.7-19.7c-0.9-7.4-2.5-14.7-3.2-22.2
		c-1.2-13-1.7-26.1-2.8-39.1c-0.9-11.7-2.2-23.4-3.3-35.2c-0.3-3.1-0.9-6.2-1.2-9.4c-1.1-9.3-2.4-18.7-3.1-28.1
		c-0.6-7.6,0.1-15.4-0.7-23c-1.5-12.8-4-25.4-5.6-38.2c-2.1-16.2-3.4-32.4-5.6-48.5c-1.7-12.1-4.7-24.1-3.9-36.5
		c0.1-1-0.4-1.9-0.6-2.9c-1.9-10-3.8-20.1-5.6-30.1c-2-11.2-3.9-22.5-6-33.7c-2.8-15.5-5.9-31-8.5-46.5c-1.4-8.7-1.7-17.5-3-26.3
		c-1.4-9.6-4.2-19-5.1-28.6c-1.2-12.2-2.2-24.3-1.4-36.7c0.8-11.6-1.3-23.4-2.3-35.2c-0.5-5.6-1.9-11.2-1.7-16.8s-2.8-8.6-6.7-10.6
		c-16.2-8.5-32.1-17.2-46.7-28.4c-4.1-3.2-9-5.5-14.9-4c-16.3,3.9-32.7,7.4-49,11.2c-5,1.1-9,4-10.8,8.8c-1.6,4.3-2.6,8.8-3.2,13.3
		c-1.6,12.5-3.4,24.9-4.1,37.5c-0.7,12.9-0.5,25.8-0.1,38.7c0.2,9,1.2,18,2,27c1.5,17.1,3,34.2,4.7,51.2c1.4,14.3,3.6,28.5,4.8,42.8
		c1.2,14.2,1.8,28.5,2.1,42.8c0.2,10.4,2.8,20.5,2.9,30.9c0.1,9.6,1.5,19.1,2.3,28.6c1.3,15.4,2.6,30.8,4,46.2
		c0.3,3.2,1.1,6.4,1.6,9.6c0.4,2.8,0.7,5.6,1.1,8.3c0.1,0.9,0.4,1.8,0.5,2.8c1.5,15,2.9,29.9,4.6,44.9c0.8,7,2.7,13.9,3.6,20.9
		c1.2,8.9,1.7,17.9,2.7,26.9c0.3,2.5,1.8,4.9,2.2,7.4c1,6.5,1.5,13.1,2.4,19.7c2,13.8,5.6,27.4,5.4,41.5c0,3.8,0.4,7.7,0.9,11.5
		c0.6,5.2,1.7,10.4,2.2,15.6c1,10.3,1.7,20.6,2.5,31c0.2,3,0.5,6,0.9,8.9c1,6.7,2.3,13.3,3.2,20c0.8,6.4,1,12.8,1.9,19.2
		c2,14.1,4.4,28.1,6.5,42.2c1.4,9.4,2.6,18.9,3.9,28.3c1.4,10.1,2.9,20.2,4.4,30.3c0.7,4.9,1.1,9.9,2.3,14.6
		c2.7,10.7,5.9,21.3,8.9,32c0.6,2.1,0.8,4.2,1.5,6.3c2.9,9,6.2,17.8,8.9,26.8s5.2,18.1,7.5,27.2c2.6,10.1,5.3,20.2,7.2,30.4
		c2,10.5,4.4,20.7,10.5,29.7c2.2,3.2,4.8,6.2,6.8,9.5c5.4,9,10.5,18.2,15.9,27.2c4.1,6.9,8.5,13.7,12.8,20.5
		c6.8,10.9,12.7,22.6,23.8,30c1.9,1.2,5.4,2.2,7,1.3c3.6-2.1,7.3-5,9.3-8.5c2.9-5.3,3.9-11.6,6.6-17.2c4.9-10.3,10.4-20.4,15.6-30.6
		c2.1-4.1,4.3-8.2,6-12.4c3.9-9.3,7.4-18.8,11.4-28s8.8-18,12.7-27.3c5.2-12.8,9.7-25.9,14.8-38.7c3.5-8.9,7.8-17.6,11.4-26.4
		c3.6-8.6,6.9-17.2,10.3-25.9c2-5.1,4.2-10,5.9-15.2c1.9-5.8,3.2-11.7,4.9-17.5c2.2-7.2,4.4-14.4,6.9-21.4c0.6-1.7,2.7-3.9,4.2-3.9
		c1.8-0.1,4.6,1.6,5.2,3.2c4.4,11.5,8.1,23.3,12.6,34.8c3.2,8.1,7.5,15.8,11,23.8c4.4,10,8.4,20.2,12.6,30.3
		c3.8,9.1,7.7,18.2,11.3,27.4c3.5,8.9,4,18.9,10.4,26.6c0.4,0.5,0.6,1.2,0.8,1.8c2.5,7.3,4.8,14.8,7.5,22c5,13,11.3,25.6,15.1,38.9
		c3.6,12.6,6.6,24.6,18.9,31.7c3,1.7,5.2,5.1,8.3,6.2c8.5,2.9,16.4,6.7,22.3,13.5c2.9,3.4,8.3,5.3,8.1,11.1c0,0.5,1.2,1,1.9,1.5
		c4.7,3.2,9.9,2.3,14.9,1.2c1.1-0.3,2.4-1.4,2.9-2.5c4.2-9.3,8.5-18.6,12.3-28.1c2.8-7,5-14.2,7.5-21.2c3.1-8.7,6.5-17.4,9.3-26.2
		c3-9.6,5.3-19.5,7.8-29.2c1.8-6.7,3.2-13.4,5.3-20c1.6-5,4.3-9.6,5.8-14.6c4.5-14.4,8.8-28.8,13-43.3c4.8-16.7,9.2-33.5,13.9-50.2
		c0.8-2.9,1.9-5.7,2.6-8.6c3.1-12.1,5.9-24.2,9.1-36.2c3.9-14.7,8.2-29.3,12.3-43.9c0.9-3.1,2.5-6.1,3.1-9.2
		c0.9-4.2,0.8-8.6,1.8-12.7c3.3-13.1,6.9-26.1,10.3-39.2c1.7-6.5,3-13.1,4.6-19.6c3.2-13.2,6.5-26.3,9.9-39.5
		c3.9-14.9,6.7-30.1,11.2-44.9c1-3.1,1.3-6.3,2.2-9.4c1.3-4.6,2.7-9.2,4.2-13.7c2.4-7,5.2-13.8,7.3-20.8c2.2-7.3,3.7-14.7,5.7-22
		c2.4-9,4.9-17.9,7.3-26.9c2.9-11.1,5.6-22.2,8.4-33.2c2.6-9.9,5.5-19.8,7.9-29.8c1.2-4.8,1-9.9,2.2-14.8c2.6-10.6,5.9-21,8.3-31.7
		c1.4-6.2,1.1-12.8,2.3-19.1c2.6-13.8,5.9-27.5,8.3-41.4c1.7-9.8,2.3-19.7,3.3-29.6c0.1-1.1-0.5-2.3-0.4-3.5
		c0.1-2.1,0.2-4.3,0.6-6.4c1-6.1,3-12.2,3.2-18.4c0.2-7.5,5-14.8,1-22.4c3.5-5.8,1.9-12.1,2.3-18.3c0.8-12.6,2.9-25.1,4.4-37.6
		c1.9-15.3,6-30.3,4-45.9c-0.3-2-0.9-4.1-0.8-6.1c0.1-2.9,0.6-5.8,1.2-8.6c0.5-2,1.1-4.2,2.2-5.9c2-2.9,4-5.6,1-8.8
		c-5.2-5.4-9.7-11-12.6-18.2c-2.2-5.6-6.9-10.2-9.8-15.6c-2.3-4.2-5.4-6-10-6.1c-13.1-0.3-25.8,1.9-38.3,5.6
		C1267.5,183.7,1257.4,186.2,1250.4,188.1z M379.6,1189.3c0.1,0.6,0.2,1.2,0.3,1.8c5.6-0.7,11.7-0.1,16.7-2.2
		c20.4-8.6,40.4-17.9,60.4-27.3c5.8-2.7,11.4-6.3,16.5-10.3c11.9-9.2,23.5-18.7,35-28.4c8-6.9,15.8-14.1,20.8-23.7
		c2.2-4.2,5.6-7.9,8.6-11.7c4.4-5.7,11.5-9.8,10.9-18.4c0-0.3,0.4-0.5,0.5-0.8c2.4-5.5,5-11,7-16.7c2.6-7.5,4.5-15.3,6.8-22.9
		c0.9-2.8,2.1-5.5,3.1-8.3c5.8-16.3,0.2-32.4-0.7-48.6c-0.3-5.7-1.6-11.4-2.6-17.1c-1.9-10.7-3.6-21.5-6-32.1
		c-2.2-9.5-5.4-18.7-8.2-28.1c-1.8-6-2.7-12.4-5.4-18c-5-10.6-10.3-21.2-16.7-31c-9.2-14-18.8-27.8-29.5-40.6
		c-12-14.4-25.4-27.5-38.2-41.2c-9.1-9.7-18.6-18.9-27.2-29c-8.4-9.8-15.8-20.5-24-30.5c-4.6-5.6-10-10.5-14.8-16
		c-4.2-4.9-8.3-9.9-12.2-15.1c-8.9-11.7-17.9-23.4-26.3-35.5c-4.2-6.1-7.4-13-10.9-19.6c-5.3-9.9-10.5-19.8-15.5-29.9
		c-4.1-8.1-8.5-16.2-11.5-24.8c-4.1-12-9.1-23.6-12-36.2c-3-13.1-6.2-26.2-8.7-39.4c-0.8-4.2-1.8-8.3-2.3-12.5
		c-1.4-10-2.9-19.9-3.8-29.9c-0.7-7.1-0.8-14.4-0.6-21.6c0.1-6.6,1.4-13.2,1.4-19.7c0-13.5-1.4-27-0.6-40.5
		c0.8-13.6,2.5-27.4,5.7-40.6c2.5-10.3,7.3-20.1,12.2-29.6c2.5-4.8,6.5-10,11.1-12.2c9.7-4.5,20.1-7.2,31.3-5.2
		c15.7,2.8,28,10.1,37.3,23.1c1.7,2.3,6.3,3.5,9.6,3.5c8.6,0.1,17.2-0.5,25.7-1.1c5.3-0.4,11,1.7,15.8-2.9c1.9-1.8,4.9-2.4,7.5-3.4
		c7.3-2.7,14.7-5.4,22-8.1c7.4-2.7,14.9-5.5,22.3-8.2c2.4-0.9,6-1,7-2.6c2-3.4,3.9-7.5,1.4-11.8c-0.8-1.3-1.4-2.7-1.7-4.1
		c-1.2-5.8-1.4-12.1-3.6-17.5c-3.5-8.5-8.2-16.5-12.4-24.8c-1.6-3.1-3.4-6.2-5.1-9.3c-6.2-11.9-10.5-24.7-19.5-35.4
		c-11.2-13.2-24.3-24-38.1-34.1c-15.8-11.6-34.7-15.4-53.1-20.1c-9.8-2.5-20.1-3.5-30.2-4.9c-10.7-1.5-21-0.4-31.4,3.1
		c-12.5,4.2-26.1,4.7-37.5,12.4c-6,4.1-13.1,6.9-18.4,11.7c-5.5,5-12.7,8.6-15.8,16c-0.2,0.6-1,0.9-1.4,1.4
		c-6.1,6.5-12.1,13-18.3,19.4c-7.9,8.3-13.5,18.2-18.4,28.3c-6.3,13.1-11.6,26.8-17.4,40.1c-2.1,4.8-5.1,9.3-6.6,14.2
		c-2.8,8.8-4.8,17.8-7.2,26.8c-0.7,2.5-1.7,5-2.3,7.5c-1.7,7.3-3.4,14.7-4.9,22.1c-1.9,9.3-4.3,18.6-5.3,28
		c-1.2,11.3-1.4,22.8-1.7,34.2c-0.3,10.3-0.1,20.5-0.4,30.8c-0.2,9.3-0.9,18.6-1.1,27.9c-0.2,8.6-0.3,17.2,0.2,25.8
		c0.5,8.4,1.7,16.8,2.7,25.3c1.4,11.7,2.7,23.3,4.4,34.9c1.8,11.9,3.4,23.9,8.1,35.2c2.4,5.8,4.5,11.7,6.8,17.5
		c1.1,2.6,2.5,5.1,3.6,7.7c3.1,7,5,14.8,9.3,20.9c7.7,10.9,16.8,21,25.5,31.2c9.4,11,19.1,21.6,28.4,32.6
		c5.5,6.6,9.6,14.5,15.8,20.4c8.6,8.3,18.2,15.7,27.9,22.8c14.7,10.7,29.6,21.1,44.8,30.9c12.9,8.3,27,15,39.7,23.5
		c15.5,10.4,30.8,21.4,43.2,35.6c5.9,6.7,10.5,14.5,16,21.5c4.6,5.9,10,11.1,14.3,17.2c8.7,12.2,14.7,25.9,20.4,39.8
		c1.9,4.6,4.8,8.7,6.3,13.4c3.3,10.8,3.7,22.1,5.1,33.3c1.7,13.4-1.3,26-3,38.8c-1.3,9.5-4.5,18.9-7.5,28.1
		c-2.7,8.2-5.5,16.5-10,23.8c-4.5,7.3-10.5,14.1-17,19.8c-10.5,9.1-21.7,17.7-33.3,25.4c-14,9.3-30,15-46.3,18
		c-18.7,3.4-38,5.9-55.8-5.1c-2.1-1.3-4.4-2.4-6.1-4.1c-7-7-13.6-14.2-19.3-22.5c-11.7-16.9-20.6-35.1-28.3-54
		c-5-12.1-9.9-24.3-14.2-36.7c-2.5-7.4-3.4-15.5-5.5-23.1c-1-3.5-2.4-7.5-5-9.7c-5.6-4.8-10.7-9.7-13.9-16.6
		c-4.3-9.1-8.1-11.6-15.7-10.9c-3.8,0.4-7.6,0.5-11.4,1c-5.5,0.7-10.9,1.7-16.4,2.6c-11.6,1.8-23.3,3.6-34.9,5.6
		c-3.5,0.6-4.4,3.2-4.5,6.7c-0.1,4.9-1.1,9.8-1.2,14.6c-0.3,10-1.3,20.2,0,30c1.2,9.5,5,18.7,7.4,28.1c2.9,11.3,5.6,22.6,8.2,34
		c3.5,15.2,7.9,30.1,13.1,44.8c7.1,19.8,18.1,37.6,28.9,55.4c6.6,10.9,15,20.6,22.7,30.8c6.2,8.2,11.7,17,21,22.3
		c4.6,2.6,8.5,6.7,13.3,8.6c18.1,7.2,37,11.5,56.1,14.4c17,2.6,34,1.1,50.9-1.9C354.2,1193.8,366.9,1191.6,379.6,1189.3z
		 M1576.8,499.8c0.2-0.1,0.4-0.2,0.6-0.2c-0.1-2.1-0.5-4.3-0.3-6.3c1.4-11.7,3-23.3,4.6-35c1.2-9.4,1.9-18.9,3.8-28.2
		c1.8-8.8,4.2-17.5,5.7-26.4c1.8-10.6,4.6-21.2,8.4-31.2c4.1-10.7,2.3-21.9,4.5-32.7c0.2-1.1,0.4-2.3,0.8-3.3
		c1.9-5.9,3.8-11.7,5.6-17.6c0.5-1.5,1.4-4.1,0.8-4.6c-3.7-3.2-0.2-5.7,0.5-8.4c2.3-8.2,5-16.2,6.7-24.5c1.9-9.2,1.7-18.8,6.1-27.4
		c0.6-1.1,1-2.6,0.7-3.8c-1.8-8-2.4-16.7-5.9-23.9c-6.5-13.2-14.6-25.5-22.4-38c-1.4-2.3-4.5-4.8-7-4.9c-8.9-0.5-17.9,0-26.8,0.1
		c-1.7,0-3.3,0.2-5,0.2c-11.4,0.3-22.8,0.3-34.2,1.1c-8.1,0.5-16.1,3.1-24.1,2.7c-7.7-0.4-15.1,0.2-22.6,1.5
		c-7.2,1.2-14.6,1.5-21.7,2.9c-2.7,0.5-6.4,2.5-7.1,4.6c-3,8.7-5.4,17.7-7.2,26.8c-1.3,6.3-1.2,12.9-1.7,19.4
		c-0.3,3.4-0.2,6.7-0.7,10.1c-1,7.9-2.1,15.7-3.3,23.5c-2.1,13-0.6,26.5-5.1,39.3c-0.5,1.4-0.2,3-0.4,4.5
		c-1.5,11.2-2.7,22.5-4.5,33.6c-2.1,12.7-5.3,25.3-7.1,38c-1.9,13.7-2.7,27.6-4.1,41.3c-0.7,6.6-1.9,13.1-2.4,19.7
		c-0.8,9.7-1,19.4-1.7,29.2c-0.5,7.7-1.4,15.4-2.1,23c-0.4,4-1.1,8-1.3,12c-0.5,8.2-0.6,16.4-1.3,24.6c-0.7,9.2-2.4,18.3-2.7,27.5
		c-0.5,12.7,0.3,25.5-0.1,38.2c-0.3,9-1.6,17.9-2.5,26.8c-0.4,3.6-1.4,7.2-1.4,10.9c0.2,13.1,1.3,26.1-0.8,39.2
		c-0.5,3.2-0.1,6.6-0.1,9.9c0.1,5.4,0.6,10.8,0.3,16.2c-0.3,8.8-1.3,17.6-1.6,26.4c-0.3,9.1,0.4,18.2-0.2,27.3
		c-0.6,8.7-2.5,17.4-3.4,26.1c-1.5,14.2-2.9,28.4-4.1,42.6c-0.7,7.7-0.5,15.4-1.3,23.1c-1.2,10.6-3.1,21.2-4.4,31.8
		c-0.8,6.4-0.9,12.9-1.2,19.3c-0.3,6.9-0.6,13.9-0.8,20.8c-0.3,10.2-0.6,20.4-0.9,30.6c-0.1,2.3-0.9,4.5-0.9,6.8
		c0.4,11.1,1.2,22.2,1.5,33.3c0.3,13.4,0.1,26.9,0.3,40.3c0,3.3,0.8,6.5,0.9,9.8c0.7,13.9,1.2,27.9,2,41.8c0.2,2.7,1.9,5.3,2.4,8
		c0.9,4.6,0.7,9.6,2.3,14c4.8,13.7,10.5,27.1,15.2,40.8c5.6,16.2,10.5,32.7,15.9,49c0.6,1.7,2.9,4,4.5,4.1c8.5,0.7,17.1,1.1,25.6,1
		c11.3-0.2,22.6-1.1,33.8-1.7c7.9-0.4,15.9-0.6,23.7-1.5c1.6-0.2,3.9-2.7,4.2-4.5c0.7-3.9,0.2-7.9,0.4-11.9
		c0.2-3.6,0.5-7.2,1.1-10.7s2.2-6.9,2.1-10.3c-0.4-11.9-1.3-23.9-2-35.8c-0.2-3.5-0.3-7-0.1-10.5c0.7-13.2,1.2-26.5,2.3-39.7
		c0.8-9.3,2.4-18.4,3.6-27.7c0.9-6.6,1.4-13.2,2.5-19.8c2.1-12.4,5.6-24.7,6.5-37.2c1.1-16.5,0.1-33.2,0.2-49.8
		c0.1-10.8,0.2-21.6,0.8-32.4c0.5-8.8,4.7-17.1,3.7-26.2c-0.2-1.6,1.5-3.3,1.7-5c0.7-5.1,1.1-10.2,1.8-15.2
		c1.5-12.1,3-24.3,4.6-36.4c1.3-9.6,2.7-19.1,4-28.6c1-7.2,2.1-14.5,3-21.7c1.3-10.2,1.2-20.8,4-30.6c2.2-7.5,2.5-14.7,2.7-22.2
		c0.2-4.4,0.2-9.3,2.1-12.9c2.1-3.8,2.3-7.4,2.3-11.3c0-2.5,0.1-5,0.4-7.5c0.9-9.1,1.7-18.3,2.7-27.4c0.2-1.5,1.3-2.8,1.5-4.2
		c0.4-2.7,0.7-5.5,0.7-8.3c0-4-1.7-8.8,0-11.9c2.8-5.1,2.2-10.1,2.5-15.3c0.6-11.5,1.7-22.9,2.6-34.4c0.8-9.9,1.6-19.8,2.5-29.7
		c0.4-4.5,1.1-8.9,1.2-13.4c0.4-11.4,0.4-22.9,1-34.3C1574.6,511.2,1575.9,505.5,1576.8,499.8z"/>
	<path class="st1" d="M2337.4,1224.6c-3.8-9-9.7-16.1-18.2-21.6c-6.2-4-12.3-8.6-14.8-16.3c-0.6-1.7-2.1-3.5-3.6-4.6
		c-3.7-2.7-4-5.8-2.2-9.6c3.7-7.6,5.3-15.5,5.8-24c0.7-11.1,2.9-22,4.4-33c1.9-14.7,3.6-29.4,5.7-44c1.3-9,2.8-18.1,4.6-27
		c3.5-17.9,7.2-35.8,11-53.7c2.7-12.5,5.7-25,8.4-37.5c0.5-2.4,0.4-5,0.4-7.5c0.2-35,0.2-70,0.7-105c0.1-9.1,1.7-18.2,2.8-27.2
		c0.8-7.4,1-15,2.8-22.2c4.3-16.9,4.6-34.2,5.9-51.4c0.5-6.8,1.8-13.5,2.7-20.3c0-0.3,0.2-0.7,0.1-1c-2.9-9.9,1.5-19.6,0.5-29.7
		c-0.9-9.2,1.8-18.8,2.6-28.2c0.3-3.6-0.4-7.2-0.1-10.8c0.4-5.6,1.1-11.2,1.7-16.7c0.7-6.6,1.9-13.1,2.3-19.7
		c0.5-8.3,1.1-16.8,0.5-25.1c-0.4-4.8,0.7-9,1.5-13.5c0.9-5.1,1.2-10.4,1-15.6c-0.1-2.7-2-5.2-2.9-7.5c-2.4-0.6-4.5-1.5-6.7-1.5
		c-1.5,0-3.6,0.8-4.5,2c-7.8,9.8-15.5,19.6-22.9,29.7c-7.1,9.8-15.3,18.2-25.6,24.8c-5.2,3.3-9.1,8.7-13.3,13.4
		c-6.8,7.5-13.4,15.1-20,22.8c-8.4,9.9-16.5,20-25,29.7c-8.9,10.3-17.1,21.3-28.5,29.1c-4.9,3.4-8.8,8.1-13.5,11.8
		c-8.7,6.9-17.6,13.5-26.3,20.4c-3.8,3-7.2,6.7-10.9,9.8c-1.8,1.5-4.1,2.6-6.4,4c0.5,2.9-0.9,4.1-4.3,5.7
		c-5.2,2.5-9.4,6.9-13.9,10.8c-5.9,5.1-11.5,10.6-17.4,15.6c-1.3,1.1-3.8,1.8-5.5,1.5c-4.7-0.8-9.2-2.6-13.8-3.2
		c-6.3-0.9-12.8-0.9-19.1-1.6c-4.4-0.5-9.5-0.3-12.8-2.6c-5.3-3.6-9.2-9.1-13.9-13.6c-3.4-3.3-7-6.5-10.6-9.6
		c-1.6-1.4-3.5-2.4-5.1-3.9c-5.8-5.8-12.3-11.1-17.2-17.6c-9.9-13.4-25.1-21.7-33.6-36.5c-2-3.5-5.6-6-8.4-8.9
		c-9.5-9.7-19.1-19.3-28.5-29.1c-7.2-7.5-13.5-15.8-21.3-22.5c-4.4-3.7-6.1-9-10.5-12.5c-4.6-3.6-8.9-7.5-12.9-11.7
		c-3.1-3.3-5.4-7.4-8.6-10.6c-2.2-2.3-5.3-3.7-8.5-5.8c0,27.9,0.4,54.4-0.1,80.8c-0.4,19.1-2.2,38.2-3.1,57.3
		c-0.7,14.8-1,29.6-1.7,44.4c-0.7,12.6-2.1,25.2-2.6,37.8s0,25.3-0.5,38c-0.5,12.1-1.9,24.2-2.4,36.3c-0.6,14-0.4,28-0.8,42
		c-0.1,3.4-0.9,6.9-1.5,10.3c-0.6,3.9-1.3,7.8-2,11.8c-2.3,12.5-4.8,25.1-6.8,37.7c-0.6,3.9,0,7.9-0.2,11.8
		c-0.1,2.1-0.1,4.7-1.1,6.3c-2.9,4.7-5.4,9.1-2.5,14.7c0.3,0.6,0.1,1.7-0.2,2.3c-3.6,7.2-3.7,15.1-4.8,22.8
		c-1.7,11.7-4.3,23.2-6.3,34.8c-1.4,8.5-1.4,17.4-3.8,25.6c-5.8,19.9-10.4,40.2-19.9,59c-2.6,5.1-2.8,11.5-4,17.3
		c-1.2,6.1-2.3,12.3-3.5,18.4c-1.2,6.4-5,8.4-12.3,7.2c-8.7-1.4-17.5-2-26.1-3.4c-4-0.6-7.9-2.1-11.5-3.8c-4.8-2.3-9.9-4.5-13.9-8
		c-8.5-7.4-17.8-13.8-24.4-23.4c-2.4-3.5-7.4-5.3-11.5-7.5c-3.4-1.9-4.7-4.4-4.3-8.2c3.3-28.5,5.4-57,5-85.7
		c-0.2-16.6,1-33.2,1.6-49.9c1-26.1,2.2-52.1,2.8-78.2c0.4-19.9,3.6-39.4,7.9-58.8c1.7-7.6,2.6-15.4,3.2-23.2
		c1.9-24.4,3.3-48.8,5.2-73.1c0.4-5.6,2.5-11,3.2-16.6c1.3-11,2.6-22.1,3.3-33.2c1.2-20.6,1.5-41.3,3.2-61.9
		c0.9-11.7,3.9-23.3,5.6-34.9c1.7-11.7,3.2-23.4,4.5-35.1c2-17.3,4.5-34.6,5.5-52c1.1-18.1,0.4-36.3,1.1-54.5
		c0.4-9.7,2-19.4,3.2-29.1c0.6-5.3,2.2-10.5,2.3-15.8c0.5-24.5,4-48.7,8.1-72.8c3.1-18.5,5.7-37.1,8.6-55.6
		c2.7-17.2,5.9-34.3,11.3-51c3.1-9.4,5.5-19,8.6-28.3c2.1-6.2,6.3-11,13.3-11.1c6.5-0.1,13.4,0.1,19.4,2.2c5.7,2,10.4,6.5,15.5,10.1
		c9,6.3,18.1,12.4,26.8,19.1c9.9,7.6,19.1,16.1,29.1,23.4c14.3,10.4,22.9,25.7,34.2,38.6c3.5,4,7,8,10.2,12.2
		c8.3,11.2,16.5,22.4,24.4,33.8c2.5,3.6,3.7,8,5.7,11.9c4.4,8.7,8.7,17.4,13.5,25.9c5.6,10,11.9,19.6,17.5,29.6
		c5.9,10.7,10.5,22.1,17.1,32.3c7.7,11.8,11.9,25.1,17.6,37.7c3.9,8.6,6.6,17.8,9.8,26.8c0.5,1.3,0.6,2.6,1.2,3.8
		c4.7,9.1,9.7,18.2,14.3,27.4c1.8,3.5,2.8,7.4,4.2,11.2c0.7,1.9,1.2,3.9,2.1,5.6c2,3.7,3.8,7.6,6.3,10.8c6.2,7.9,14.9,6.5,20.2-2.5
		c7.4-12.5,14.5-25.1,25-35.7c8.3-8.3,14.6-18.4,22.1-27.5c3.6-4.5,7.9-8.4,11.5-12.9c2.6-3.4,4.4-7.4,6.9-10.9
		c5-6.8,10.3-13.5,15.5-20.2c0.4-0.5,1-0.9,1.4-1.4c8-10.3,15.6-20.8,24-30.7c7.5-8.9,16-17,23.8-25.6c7.6-8.4,14.8-17.4,22.5-25.7
		c5.3-5.7,11.3-10.7,17-16.1c11.1-10.5,22.2-21.1,33.3-31.7c5.8-5.5,11.7-10.7,17.3-16.4c9.1-9.2,17.8-18.8,26.9-27.9
		c7.3-7.3,15.1-14.2,22.6-21.4c7.3-7,14.3-14.5,21.8-21.3c6.4-5.8,12.7-11.7,23.1-10.1c10.5,1.7,21.2,1.8,31.8,2
		c3.4,0.1,7.2-1.2,10.3-2.8c3.5-1.8,6.5-3,10.4-1.4c1.7,0.7,3.9,0.4,5.8,0.1c7.3-1.1,10.9,1.2,12.6,8.4c0.5,2.3,0.9,4.6,1.1,6.9
		c1.7,19.1,3.4,38.3,4.8,57.4c0.2,2.9-0.8,5.9-0.7,8.9c0.1,7.9,0.1,15.7,0.7,23.5c0.2,2.8,2.4,5.5,2.8,8.4
		c0.6,5.1-0.4,10.4,0.9,15.2c1.7,6.2-0.2,11.8-0.9,17.6c-0.1,0.7-0.3,1.4-0.1,2c2.6,7.3,1.2,14.7,1,22.1
		c-0.4,16.1-0.6,32.2-0.7,48.4c-0.1,9.2-1.7,18.9,0.4,27.7c4.7,19.3,3.4,38.7,3.6,58.1c0.1,5.8-1.1,11.6-1.6,17.4
		c-0.5,6.6-1.1,13.2-1.3,19.8c-0.5,18,0.2,36.1-1.5,53.9c-2.5,25.3-2.4,50.8-8.1,75.8c-6.3,27.7-3.9,56-3.8,84.1
		c0,21.7-1.1,43.1-5.6,64.5c-6.2,29.6-11.3,59.4-16.8,89.2c-2,10.9-3,22.2-6.2,32.7c-6.7,21.7-10.1,44.6-22,64.4
		c-7.1,11.8-9.5,25.1-13,38.1c-1.9,7.2-4.7,14.1-7,21.2c-2.9,8.8-5.5,17.7-8.5,26.5c-2.9,8.3-6.4,16.4-9.3,24.7
		c-1.7,5-2.6,10.3-4.2,15.3c-2.9,9.5-5.5,19.2-9.3,28.4c-1.9,4.6-6.6,7.2-12.2,7.2c-11.5-0.1-23,0-34.5,0.2
		C2345.9,1224,2341.8,1224.3,2337.4,1224.6z M1888.8,493.8c2.1,2.3,4.8,4.5,6.2,7.3c2.6,5.1,3.4,11.3,6.7,15.8
		c3.1,4.3,4.1,9.7,8.7,13.3c2.5,2,7,4.8,6.1,10c-0.1,0.8,1.1,1.9,1.9,2.7c4.2,4.2,10.3,6.7,11.2,13.6c0.1,0.9,1.6,1.6,2.3,2.5
		c7.1,7.9,14.2,15.8,21.4,23.6c5.3,5.8,10.6,11.7,16.2,17.2c6,6,13,11.1,18.5,17.5c5.3,6.2,12.9,9.8,17.2,17.1
		c2.3,3.9,6.5,6.6,9.5,10.1c10,11.6,23.3,20.1,31.7,33.3c2.6,4.1,5.6,8,8.7,11.7c6.5,7.7,13.2,15.1,19.7,22.7c2.6,3,4.9,6.2,7.5,9.1
		c2.3,2.5,5.3,4.4,7.1,7.1c3.2,4.8,4.8,11,8.8,14.9c7,6.9,7.3,16.7,13.6,24.5c3.8-0.1,7.4-2.6,10.4-6.1c14.7-17.2,32-31.4,50.6-44.1
		c8.3-5.7,16.2-12.1,23.9-18.7c4.5-3.8,8.1-8.5,12.3-12.6c1.8-1.8,4.2-3,6-4.8c2.9-3,5.4-6.3,8.2-9.4c6.4-7,13-14,19.4-21
		c7.1-7.6,14.3-15.2,21.3-22.9c4.1-4.5,8-9.3,12.1-13.8c6.3-6.8,12.2-14.3,19.4-19.9c9.1-7,16.7-14.9,23-24.5
		c5.9-9.1,12.7-17.9,20.3-25.7c6.8-7,15.7-11.7,22.6-18.6c9.9-9.8,21.7-16.4,34.1-22.2c3.8-1.7,8.1-1.5,9.8,2c2.5,5.3,6.3,10,6,16.9
		c-0.6,14.3-0.1,28.6,0.4,43c0.5,13.9,1.5,27.9,2.3,41.8c0.6,10.3,1,20.6,1.8,30.8c0.6,7.4,2.2,14.8,2.4,22.3
		c0.4,14.2,0.5,28.3,0.1,42.5c-0.7,20.6-1.9,41.2-2.9,61.7c-0.1,1.8-0.4,3.6-0.5,5.5c-0.7,10.8-1.4,21.6-2.1,32.3
		c-0.7,11.5-1.4,23.1-2,34.6c-0.1,1.3,0.1,2.6,0.2,3.9c0.1,1.3,0.8,3.1,0.2,3.8c-3,3.7-1.4,7.6-0.9,11.5c0.2,1.4,0,2.9-0.1,4.4
		c-0.2,5.4-0.4,10.8-0.6,16.2c0,1.1,0.1,2.2,0.1,3.3c-0.3,4-0.8,8-1.1,12c-0.1,1.1,0.4,2.3,0.2,3.4c-1.2,7-2.9,13.9-3.6,21
		c-1.3,14.1-2.4,28.3-2.8,42.4c-0.6,22.6-2.8,45.1-6.6,67.4c-2.6,15.3-4.9,30.5-10.7,45.1c-2.6,6.5-4.1,13.3-6.3,19.9
		c-4.3,12.7-8.2,25.7-13.4,38c-5.7,13.5-12.2,26.5-13.9,41.3c-1,8.8-2.4,17.6-3.1,26.4c-0.4,4.7-0.1,9.2-5.6,12.8
		c3.1,0.3,4.9,0.7,6.6,0.7c9,0.1,18,0.1,27,0s9.7-0.6,12-9.3c2.5-9.3,4.4-18.8,7.3-27.9c4-12.8,8.8-25.4,13.1-38.1
		c5.2-15.6,10.3-31.3,15.4-46.9c2.2-6.8,3.7-13.8,6.4-20.4c4.2-10.1,10.1-19.6,13.8-29.8c4.6-12.8,8.2-26,11.2-39.2
		c3.8-16.8,6.4-33.9,9.6-50.8c2.9-15.7,5.9-31.4,8.7-47.1c1.3-7.2,2.5-14.4,3.8-21.6c2.4-13.4,6.2-26.7,7-40.2
		c1.2-20.2,0.3-40.6,0.4-60.9c0.1-10.6-0.3-21.3,0.8-31.9c1.5-13.9,4.8-27.5,6.5-41.4c1.3-10.2,1.3-20.6,2.2-30.8
		c0.8-10.2,2.3-20.4,2.8-30.6c0.5-10.4-0.2-20.9,0.2-31.4c0.5-12.9,1.4-25.9,2.5-38.8c1.5-17.6-0.3-35.1-1.2-52.6
		c-0.1-2.3-0.2-4.6-0.4-6.9c-0.8-9.6-1.9-19.2-2.3-28.8c-0.2-4.4,1.3-8.9,1.2-13.4c-0.3-23-0.6-45.9-1.4-68.9
		c-0.3-10.1-2.3-20.2-2.7-30.3c-1.1-26.9-1.3-53.9-3-80.8c-0.4-6.6,2.6-17.4-10-18.4c-0.3,0-0.6,0,0.4,0c-4.5,3.8-8.2,7-12.1,10
		c-6.7,5.2-13.5,10.3-20.2,15.6c-0.5,0.4-0.4,1.3-0.8,1.8c-1.4,1.4-2.7,2.9-4.3,4.1c-9.8,7.6-20.2,14.5-29.4,22.8
		c-12.6,11.4-24.3,23.8-36.3,35.9c-3,3-4.7,7.4-7.8,10.1c-7.1,6.1-11.7,13.9-17,21.3c-5.1,7.2-8.6,15.6-16,21.3
		c-10.9,8.3-19.2,19-27.5,29.8c-6.3,8.3-13.7,15.7-20.6,23.6c-5.4,6.1-11.4,11.8-15.8,18.4c-7.4,11.1-14.2,22.5-24.4,31.4
		c-4.3,3.7-9.6,7-12,11.7c-3.4,6.5-11,9.5-12.6,17c-0.2,0.8-1.3,1.4-2,2.1c-4.4,4.7-9,9.2-13.1,14c-5.8,6.8-11.2,14-17,20.9
		c-8.3,9.7-19.5,16.4-27.1,27c-7.3,10.3-15.9,19.7-23.5,29.8c-3.7,4.8-6.6,10.2-9.8,15.3c-3.6,5.9-13.1,6.8-16.1,0.8
		c-2-3.9-1.8-8.9-2.6-13.4c-0.2-1.1-0.1-2.5-0.7-3.3c-3.3-4-7.1-7.7-10-12c-2.8-4.2-4.6-9-7-13.5c-4.1-7.5-8.7-14.8-12.3-22.6
		c-5.9-12.6-11-25.5-16.7-38.2c-3-6.6-7.5-12.7-9.5-19.5c-3.9-13.2-8.9-25.9-15.6-37.9c-3.8-6.9-6.8-14.2-10.5-21.2
		c-6-11.3-12.3-22.5-18.5-33.8c-2.4-4.4-4.2-9.2-7.3-13c-11.2-13.4-17.9-29.3-25.9-44.5c-8.6-16.3-18.5-31.7-30.4-45.8
		c-6.5-7.7-13.2-15.2-19.9-22.7c-6.3-7-12.4-14.2-19-20.9c-6.1-6.1-12.5-11.9-19.1-17.4c-10.2-8.4-20.7-16.4-31.3-24.5
		c-4.3-3.3-9.7-0.8-10.5,4.4c-2.4,14.5-4.9,29-7.2,43.4c-0.9,5.5-1.5,11.1-2.4,16.7c-1.9,11.6-4.5,23.1-5.9,34.8
		c-1.5,12.9-2.5,25.8-2.7,38.8c-0.4,24.8-2.3,49.5-4.6,74.2c-1.5,16.2-2,32.6-1.7,48.8c0.4,24.4-1.2,48.8,1.3,73.2
		c1.5,14.3-1.8,29.1-2.7,43.6c-1.3,19.9-2.5,39.8-3.5,59.8c-1,19.9-1.5,39.8-2.6,59.7c-0.7,11.6-2.4,23.2-3,34.8
		c-0.8,12.9-0.1,25.7-2.6,38.7c-2.9,14.9-2.8,30.4-4,45.7c-0.4,5.6-0.3,11.3-1,16.9c-1.4,12.5-3.2,25.1-4.8,37.6
		c-1,7.7-2.1,15.5-3,23.2c-0.8,6-1.9,12.1-2,18.1c-0.2,13.2-1.3,26.2-4.2,39.1c-1.6,7.1-2.3,14.5-2.3,21.7c0.1,21,0.9,41.9,1,62.9
		c0.2,23,0.1,46-0.1,69c0,4.9-1,9.9-1.8,14.8c-0.7,4.6-1.8,9.1-2.7,13.7c-0.5,2.4,0.2,3.9,3,3.9c7.1,0,14.2,0,21.7,0
		c0.3-1.4,0.8-3.4,1.3-5.3c2.6-9.4,4.1-19.4,8.1-28.2c8.8-18.9,14.9-38.6,18.8-58.8c4.7-24.1,7.4-48.6,10.8-73
		c0.7-4.9,0.2-10.1,1.2-14.9c3.2-15,7.1-29.8,10.1-44.8c1.6-8.1,2.2-16.4,3.2-24.7c1-8.4,2.3-16.7,2.8-25.1
		c0.6-10.3,0.1-20.6,0.6-30.9c0.7-16.3,1.9-32.5,2.7-48.8c0.5-10.3,0.1-20.7,0.7-31c1.2-22.2,3-44.4,4.2-66.6
		c0.7-12.6,0.6-25.3,0.9-37.9c0.4-15.2,1.1-30.4,1.5-45.6c0.2-6.5-0.1-13.1,0.1-19.6c0.3-12.4,2.2-25,0.7-37.1
		c-2.6-21.7-1.2-43.3-1.4-64.9c0-1.5,0.6-2.9,0.9-4.4c1.5-8.7,3.4-17.3,4.2-26C1882.2,499.5,1882.9,495.8,1888.8,493.8z
		 M1837.2,253.4c-8.2-4.8-10.5-4-10,5c0.5,10.1-2.6,19-6.6,27.8c-6.3,14.1-9.2,29-10.8,44.3c-0.4,3.6-1.7,7-2.4,10.6
		c-1.5,7.8-3.9,15.6-4,23.4c-0.2,13.9-2.1,27.2-5.5,40.7c-3.5,13.6-4.4,27.8-6.3,41.8c-0.3,2,1.5,4.4,0.9,6.2
		c-3.7,12.7-3.9,25.8-3.8,38.8c0,2.3-0.2,4.6-0.4,6.9c-0.9,10.1-2.2,20.2-2.9,30.3c-0.7,10.1-0.5,20.3-1.4,30.4
		c-1.2,13.1-3,26-4.6,39.1c-1.7,14.5-2.6,29.2-5.4,43.6c-3.9,20.5-6.6,41-6.9,61.8c-0.2,24.3-1.4,48.5-5.6,72.5
		c-0.8,4.7,0.1,9.6-0.5,14.3c-1,7.6-3.1,15.1-3.8,22.8c-1.6,17.7-2.4,35.5-4,53.2c-0.7,7.7-2.8,15.2-3.7,22.9
		c-1.3,11.2-2.4,22.5-3.1,33.8c-0.5,8.7-0.2,17.5-0.4,26.3c-0.1,6.2-0.3,12.5-0.8,18.7c-0.6,7.5-1.9,15-2.1,22.5
		c-0.6,18.5-0.7,37-1,55.5c-0.1,4.9-0.3,9.8-0.3,14.7c-0.1,8.4,0.1,16.8-0.1,25.3c-0.1,4.1-1.4,8.1-1.5,12.1
		c-0.1,7.1,0.3,14.2,0.5,21.3c0.1,6.6-0.2,13.3,0.4,19.8c0.4,4.3,1.6,8.8,3.5,12.6c1.7,3.5,4.9,6.2,7.6,9.2
		c5.2,5.8,10.3,11.6,15.8,17.2c2.3,2.3,4.9,2.5,5.5-1.8c1.1-8.4,3.4-16.7,1.5-25.3c-0.2-1.1,0.1-2.3,0.1-3.4c0-2.7,0-5.5,0-8.6
		c0.5-1.6,1.6-3.8,1.6-5.9c-0.2-25.5-0.6-50.9-0.8-76.4c-0.2-21.3-0.4-42.6,4.6-63.6c1.1-4.6,1.9-9.6,1.3-14.3
		c-1.9-16.7,3-32.6,4.9-48.9c1-8.6,2.5-17.1,3.5-25.6c1.2-10.9,2.2-21.8,3.2-32.7c1.9-19.5,3.9-39,5.5-58.5
		c1.1-13.1,1.5-26.2,2.4-39.3c1.2-18.9,2.7-37.8,3.6-56.7c1-19.3,1.3-38.6,2.1-57.9c0.6-13.3,1.4-26.6,2.1-39.8
		c0.4-7.1,1-14.2,1.1-21.2c0-3.4-1.3-6.7-1.4-10.1c-0.1-5.6,0.4-11.2,0.3-16.8c-0.1-4.5-1-8.9-0.9-13.4c0.1-8.5,0.9-16.9,1-25.4
		c0.1-4.2-1.3-8.5-1-12.7c1.3-21.9,3-43.7,4.5-65.6c0.6-9.5,0.6-19,1.3-28.5c1-14.4,2.6-28.7,3.4-43.1c0.8-13.6,0.6-27.3,1.5-40.9
		c0.5-7.4,2.2-14.7,3.7-22c1.2-6,3.2-11.8,4.2-17.8c2.3-12.6,4.1-25.4,6.4-38C1834.2,260.6,1835.9,257.1,1837.2,253.4z
		 M2397.3,549.7c0-8.5,0.1-15.9,0-23.3c-0.1-4-4.1-6.5-7.6-4.6c-3.1,1.6-6.1,3.4-8.9,5.5c-6.5,4.8-8.5,11.9-6,19.6
		c0.5,1.6,1.7,3.6,1.2,4.7c-2.9,5.8-3.6,11.7-2.9,18.2c0.6,5-0.3,10.2-0.3,15.3c0,2.6,1,5.3,0.7,7.8c-1,7.8-2.7,15.4-3.4,23.2
		c-0.4,4.1,0.8,8.3,1.2,12.4c0.1,0.9,0.2,2.2-0.3,2.8c-5.7,6.9-2.7,14.7-2.7,22.3c0,3.9-1.5,7.7,0.3,11.6c0.3,0.6-1.1,1.9-1.6,2.9
		c-0.6,0.9-1.6,1.9-1.6,2.8c-0.1,7.1,0,14.2,0,21.3c0,6.2,0.1,12.4-0.2,18.6c-0.4,7.5-1.3,15.1-1.6,22.6
		c-0.5,13.7,0.6,27.6-1.2,41.1c-2.7,20.3-7.7,40.2-7.9,60.9c0,7.4-0.8,14.8-0.9,22.1c-0.3,22.6-0.4,45.3-0.7,67.9
		c-0.1,10,0.2,20.1-1.1,29.9c-1.6,12.4-4.5,24.7-7.2,37c-3,13.9-6.4,27.7-9.5,41.6c-2.5,11.3-4.6,22.6-6.9,33.9
		c-0.1,0.6,0,1.3-0.1,2c-1.9,15.3-3.8,30.7-5.7,46c-1.6,12.3-3.2,24.7-5,37c-0.8,5.6-2.1,11.1-3,16.6c-0.3,1.9-0.8,4.3,0,5.7
		c3.1,5,6.3,10.1,10.2,14.3c1.7,1.8,5.4,2.1,8.2,2.1c0.8,0,1.9-3.6,2.2-5.7c0.6-4.1,0.3-8.4,1-12.4c3.4-18.8,9.2-36.8,18.3-53.6
		c1.7-3.2,3.2-6.6,4.3-10.1c4.8-14.7,9.5-29.4,14.2-44.2c1.5-4.7,3.8-9.3,4.7-14.2c2.8-14.7,5.5-29.4,7.7-44.2
		c1.4-9.2,2-18.5,2.6-27.8c1.4-21.6,2.6-43.1,3.9-64.7c1.3-20.1,2.6-40.1,3.9-60.2c0.2-3.5,0.2-7,0.5-10.5
		c1.1-11.4,2.6-22.8,3.4-34.2c0.8-12.1,0.8-24.3,1.3-36.4c0.8-20.1,3.5-40.1,2.3-60.3c-0.5-8.4,1.1-16.8,1.3-25.3
		c0.2-10.5,0.6-21-0.3-31.4c-1.5-17.7-4.8-35.3-3.6-53.2c0.3-3.8,0-7.7-0.3-11.5C2399.4,577.4,2398.3,563,2397.3,549.7z
		 M2456.1,269.7c-7.8-0.9-15.1-2.1-22.5-2.3c-3.3-0.1-7.4,0.7-9.8,2.7c-7.7,6.2-14.8,13-21.9,19.8c-4.1,3.9-7.5,8.6-11.6,12.5
		c-13.3,12.8-26.9,25.3-40.2,38c-2,1.9-3.6,4.4-5.5,6.4c-3.1,3.4-5.8,7.7-9.6,9.6c-4.3,2.2-6.7,5.8-9.6,9c-0.8,0.8-1.4,1.9-2.2,2.7
		c-14.7,13.8-29.5,27.4-43.9,41.4c-6,5.9-11.1,12.7-16.8,18.9c-6.2,6.9-12.6,13.6-18.9,20.4c-4.5,4.8-9.1,9.6-13.3,14.6
		c-9.1,10.9-18,22.1-27.1,33c-5.6,6.7-11.5,13.2-17.2,19.8c-0.6,0.7-0.9,1.8-1.4,2.6c-3.8,5.6-7.6,11.2-11.3,16.8
		c-5,7.7-13.8,12-17.9,20.9c-2.4,5.4-7.4,9.6-11.1,14.4c-3.7,4.8-7.6,9.5-10.9,14.5c-5.6,8.3-10.8,17-16.4,25.3
		c-2.4,3.5-5.6,6.5-8.4,9.7c5.1,6.9,4.5,17.7,14.6,22.4c0.8-1.1,1.5-2,2.2-3c5.8-8.1,11.2-16.4,17.3-24.3
		c8.7-11.2,17.7-22.4,27-33.1c13.3-15.3,26.8-30.4,40.6-45.2c8.4-9,17.4-17.4,26.1-26.1c3.4-3.4,5.9-7.9,9.8-10.5
		c4.8-3.2,7.9-7.3,10.8-12.1c6.6-10.8,14.1-20.8,23.7-29.4c6.6-5.9,12-13.2,17.7-20.1c8.4-10,14.6-22,25.6-29.7
		c3-2.1,6.1-4.4,8.1-7.3c12.3-17.2,24.4-34.5,36.4-51.9c9.1-13.1,19.6-24.8,32.7-34c4.6-3.2,9.9-5.6,14.4-9
		c7.4-5.6,14.8-11.3,21.7-17.6C2443.7,283.6,2449.6,276.6,2456.1,269.7z M1891.2,558.2c-0.4,0.1-0.8,0.2-1.2,0.3
		c1.7,4.3,2.7,9,5.3,12.6c6,8.2,12.4,16.2,19.2,23.7c6.9,7.6,14.5,14.6,21.8,21.8c1.4,1.4,3.2,2.5,4.3,4c4,5.3,7.1,11.3,11.7,16.1
		c12.5,13.1,25.5,25.6,38.3,38.4c3.9,3.9,7.7,7.8,11.4,11.9c4.8,5.5,9,11.5,14.1,16.7c11.1,11.5,22.5,22.6,33.8,33.8
		c10.4,10.3,20.8,20.5,31.5,30.5c5.2,4.9,11.8,5.4,18.6,3.9c0.8-0.2,1.8-2.9,1.4-3.8c-2.7-5.8-5.7-11.5-8.9-17
		c-2.2-3.8-5.1-7.1-7.6-10.8c-2.9-4.3-5.3-8.9-8.6-12.9c-3.5-4.3-7.6-8-11.5-12c-4.1-4.1-8.5-7.8-12.2-12.3
		c-6.6-8-12.5-16.7-19.2-24.6c-5.3-6.2-11.6-11.6-17.3-17.5c-9.9-10.3-19.6-20.8-29.5-31.1c-3.9-4.1-8-7.9-12.2-11.8
		c-2.8-2.6-5.7-5.1-8.7-7.5c-1.1-0.9-3-1.1-3.9-2.2c-3.2-3.5-6.2-7.3-9.2-11c-2.1-2.5-3.9-5.1-6.2-7.5c-3.9-4.1-8.3-7.9-12-12.2
		c-4.7-5.5-9-11.5-13.5-17.1c-3.7-4.6-7.9-8.9-11.5-13.6c-2.7-3.5-4.5-7.7-7.4-11.1c-1.2-1.5-4-2.2-6-2.1c-1.2,0.1-3.1,2.4-3.3,3.8
		C1891.8,544.6,1891.6,551.4,1891.2,558.2z"/>
	<path class="st1" d="M1250.4,188.1c7-1.9,17.1-4.4,27.1-7.3c12.5-3.7,25.2-5.9,38.3-5.6c4.5,0.1,7.7,1.9,10,6.1
		c2.9,5.4,7.5,10,9.8,15.6c2.9,7.2,7.4,12.8,12.6,18.2c3,3.2,1,5.9-1,8.8c-1.2,1.7-1.8,3.9-2.2,5.9c-0.6,2.8-1.1,5.7-1.2,8.6
		c-0.1,2,0.6,4.1,0.8,6.1c2.1,15.6-2.1,30.7-4,45.9c-1.5,12.5-3.6,25-4.4,37.6c-0.4,6.2,1.2,12.5-2.3,18.3c4,7.6-0.8,14.9-1,22.4
		c-0.2,6.1-2.1,12.2-3.2,18.4c-0.4,2.1-0.5,4.2-0.6,6.4c0,1.1,0.6,2.3,0.4,3.5c-1,9.9-1.6,19.8-3.3,29.6
		c-2.4,13.9-5.7,27.5-8.3,41.4c-1.2,6.3-0.9,12.9-2.3,19.1c-2.4,10.6-5.8,21.1-8.3,31.7c-1.2,4.8-1,9.9-2.2,14.8
		c-2.4,10-5.3,19.9-7.9,29.8c-2.9,11.1-5.6,22.2-8.4,33.2c-2.3,9-4.9,17.9-7.3,26.9c-1.9,7.3-3.5,14.8-5.7,22
		c-2.1,7-4.9,13.9-7.3,20.8c-1.5,4.5-3,9.1-4.2,13.7c-0.9,3.1-1.2,6.4-2.2,9.4c-4.6,14.8-7.4,30-11.2,44.9
		c-3.4,13.1-6.7,26.3-9.9,39.5c-1.6,6.5-2.9,13.1-4.6,19.6c-3.4,13.1-7,26.1-10.3,39.2c-1,4.1-0.9,8.5-1.8,12.7
		c-0.7,3.2-2.2,6.1-3.1,9.2c-4.2,14.6-8.4,29.2-12.3,43.9c-3.2,12-6.1,24.2-9.1,36.2c-0.7,2.9-1.8,5.7-2.6,8.6
		c-4.6,16.7-9.1,33.5-13.9,50.2c-4.1,14.5-8.5,28.9-13,43.3c-1.6,5-4.3,9.6-5.8,14.6c-2.1,6.6-3.5,13.3-5.3,20
		c-2.6,9.8-4.9,19.6-7.8,29.2c-2.7,8.9-6.2,17.5-9.3,26.2c-2.5,7.1-4.7,14.3-7.5,21.2c-3.8,9.5-8.1,18.8-12.3,28.1
		c-0.5,1.1-1.8,2.2-2.9,2.5c-5,1.1-10.2,2-14.9-1.2c-0.7-0.5-1.9-1-1.9-1.5c0.2-5.8-5.1-7.7-8.1-11.1c-5.9-6.8-13.8-10.5-22.3-13.5
		c-3.1-1.1-5.3-4.4-8.3-6.2c-12.3-7.1-15.3-19.1-18.9-31.7c-3.8-13.3-10.1-25.9-15.1-38.9c-2.8-7.2-5-14.7-7.5-22
		c-0.2-0.6-0.4-1.3-0.8-1.8c-6.5-7.7-6.9-17.8-10.4-26.6c-3.6-9.2-7.5-18.3-11.3-27.4c-4.2-10.1-8.2-20.3-12.6-30.3
		c-3.5-8-7.8-15.7-11-23.8c-4.5-11.5-8.2-23.3-12.6-34.8c-0.6-1.6-3.4-3.2-5.2-3.2c-1.5,0-3.6,2.3-4.2,3.9c-2.6,7-4.8,14.2-6.9,21.4
		c-1.8,5.8-3,11.7-4.9,17.5c-1.7,5.2-3.9,10.1-5.9,15.2c-3.4,8.6-6.7,17.3-10.3,25.9c-3.7,8.9-7.9,17.5-11.4,26.4
		c-5.1,12.8-9.5,25.9-14.8,38.7c-3.8,9.3-8.6,18.1-12.7,27.3c-4,9.2-7.5,18.7-11.4,28c-1.8,4.2-4,8.3-6,12.4
		c-5.2,10.2-10.7,20.3-15.6,30.6c-2.6,5.5-3.6,11.9-6.6,17.2c-1.9,3.5-5.7,6.3-9.3,8.5c-1.6,0.9-5.1,0-7-1.3
		c-11.2-7.4-17.1-19.1-23.8-30c-4.2-6.9-8.6-13.6-12.8-20.5c-5.4-9-10.5-18.2-15.9-27.2c-2-3.3-4.7-6.3-6.8-9.5
		c-6-9-8.5-19.2-10.5-29.7c-1.9-10.2-4.6-20.3-7.2-30.4c-2.3-9.1-4.8-18.2-7.5-27.2c-2.8-9-6-17.9-8.9-26.8c-0.7-2-0.9-4.2-1.5-6.3
		c-3-10.7-6.2-21.3-8.9-32c-1.2-4.8-1.6-9.7-2.3-14.6c-1.5-10.1-3-20.2-4.4-30.3c-1.3-9.4-2.5-18.9-3.9-28.3
		c-2.1-14.1-4.5-28.1-6.5-42.2c-0.9-6.4-1.1-12.8-1.9-19.2c-0.9-6.7-2.2-13.3-3.2-20c-0.4-2.9-0.7-5.9-0.9-8.9
		c-0.8-10.3-1.5-20.7-2.5-31c-0.5-5.2-1.5-10.4-2.2-15.6c-0.5-3.8-0.9-7.6-0.9-11.5c0.2-14.1-3.5-27.7-5.4-41.5
		c-0.9-6.5-1.5-13.2-2.4-19.7c-0.4-2.5-1.9-4.9-2.2-7.4c-1.1-8.9-1.6-18-2.7-26.9c-0.9-7-2.8-13.9-3.6-20.9
		c-1.7-14.9-3.1-29.9-4.6-44.9c-0.1-0.9-0.4-1.8-0.5-2.8c-0.4-2.8-0.6-5.6-1.1-8.3c-0.5-3.2-1.3-6.4-1.6-9.6
		c-1.4-15.4-2.7-30.8-4-46.2c-0.8-9.5-2.2-19.1-2.3-28.6c-0.1-10.4-2.7-20.5-2.9-30.9c-0.2-14.3-0.9-28.6-2.1-42.8
		c-1.2-14.3-3.3-28.6-4.8-42.8c-1.7-17.1-3.2-34.2-4.7-51.2c-0.8-9-1.8-18-2-27c-0.3-12.9-0.6-25.9,0.1-38.7
		c0.7-12.5,2.5-25,4.1-37.5c0.6-4.5,1.6-9.1,3.2-13.3c1.8-4.8,5.8-7.7,10.8-8.8c16.3-3.8,32.7-7.3,49-11.2c5.9-1.4,10.8,0.9,14.9,4
		c14.5,11.2,30.5,20,46.7,28.4c3.9,2,6.9,5.1,6.7,10.6c-0.2,5.6,1.3,11.2,1.7,16.8c1,11.7,3.1,23.5,2.3,35.2
		c-0.9,12.4,0.2,24.5,1.4,36.7c1,9.6,3.7,19,5.1,28.6c1.3,8.7,1.6,17.6,3,26.3c2.5,15.6,5.6,31,8.5,46.5c2,11.2,3.9,22.5,6,33.7
		c1.8,10,3.7,20.1,5.6,30.1c0.2,1,0.7,2,0.6,2.9c-0.8,12.4,2.2,24.3,3.9,36.5c2.2,16.1,3.6,32.4,5.6,48.5
		c1.6,12.8,4.1,25.4,5.6,38.2c0.9,7.6,0.1,15.4,0.7,23c0.7,9.4,2,18.7,3.1,28.1c0.4,3.1,0.9,6.2,1.2,9.4c1.2,11.7,2.4,23.4,3.3,35.2
		c1,13,1.6,26.1,2.8,39.1c0.7,7.4,2.3,14.8,3.2,22.2c0.8,6.5,1,13.2,1.7,19.7c0.6,4.9,1.4,9.7,2.7,14.4c0.6,2,2.5,4.5,4.2,4.9
		c1.5,0.4,4.2-1.5,5.4-3c6.9-8.5,13.9-17,20.1-25.9c7.5-10.8,14.1-22.3,21.5-33.2c5.3-7.7,11.2-15,16.9-22.5
		c4-5.3,7.7-10.7,11.8-15.8c5.5-6.9,10.9-13.9,16.8-20.5c6.1-6.8,12.7-13.2,19.2-19.6c7.4-7.3,13.3-6.5,20.2,1.2
		c5.8,6.6,12.6,12.3,18.7,18.6c2.2,2.3,4,5.1,5.3,8.1c8.2,19.2,12.6,39.8,21.8,58.8c5.2,10.7,10.2,22.2,11.7,34.6
		c0.7,5.4,3.8,10.5,5.8,15.8c0.7,1.9,1,4.1,1.7,6c4,10.3,8,20.6,12,30.9c0.2,0.6,0.6,1.2,0.8,1.8c3.2,11.1,6.2,22.3,9.7,33.3
		c0.9,2.8,2.9,5.6,5.1,7.7c2,1.9,5.6,1.2,5.3-1.6c-0.7-7.3,2.8-13.2,4.8-19.6c2.3-7.6,4.7-15.2,6.5-22.9c2.3-9.9,3.9-20,6.2-30
		c2.7-11.5,5.9-23,8.7-34.5c1.2-5,1.7-10.2,3.1-15.1c4.3-15.3,6.6-31.1,9.9-46.7c2.3-10.8,5.2-21.6,7.8-32.4
		c2.1-8.7,4.1-17.4,6.5-26c2-7.2,4.8-14.3,6.8-21.5c1.6-5.6,2.4-11.3,3.9-17c3.5-14.1,7.3-28.2,10.8-42.4c1.1-4.3,1.6-8.7,2.5-13
		c2.3-11.3,4.6-22.7,7.1-33.9c3-13.4,6.4-26.8,9.3-40.2c2.8-13,5.2-26,7.6-39c1.9-10.2,3.7-20.5,5.3-30.7c1.4-8.9,2.4-17.8,3.5-26.6
		c1.5-13,3.1-26,4.4-39c0.8-7.7,0.8-15.5,1.9-23.2c1.3-9.4,3.6-18.7,5.1-28.1c0.6-3.9-0.2-8,0.3-11.8c1.6-11.6,3-23.3,5.7-34.7
		c1.9-8,5.2-15.9,9.2-23.1C1230.8,188.4,1239.1,187.8,1250.4,188.1z M1000,672c-3.9,7.2-7.8,14.6-11.8,21.9
		c-2.1,3.8-4.4,7.4-6.3,11.2c-3.1,6.3-5.6,12.9-9.1,19c-8.3,14.6-16.8,29.1-25.7,43.3c-7.4,11.8-15.5,23.3-23.3,34.8
		c-7,10.3-14.5,20.3-20.8,31.1c-7.3,12.4-13.5,25.4-20.1,38.2c-2.4,4.6-6.5,7.1-11.4,6.3c-4.5-0.7-4.5-4.8-5.4-8
		c-1.4-5-2.7-10-4.1-14.9c-1.7-6.1-3.7-12.1-5.1-18.2c-2.7-11.8-5.1-23.6-7.5-35.4c-1-4.7-1.7-9.4-2.4-14.2
		c-0.3-1.8-0.1-3.7-0.4-5.5c-2.7-16-6-31.9-8.2-48c-1.8-13.2-2.2-26.6-3.3-40c-0.5-5.6-1-11.2-1.8-16.8c-1.4-10.6-2.9-21.2-4.3-31.9
		c-0.6-4.4-0.9-8.8-1.4-13.3c-0.6-6.2-1.4-12.5-1.9-18.7c-0.9-12.5-1.3-25.2-2.6-37.7c-1.5-14-3.9-27.9-5.7-41.9
		c-0.6-4.2-0.3-8.5-0.8-12.7c-2.2-17.5-4.6-34.9-7-52.4c-1.5-10.4-3.3-20.7-4.9-31c-0.5-3.6-0.3-7.3-0.9-10.8
		c-2.5-13-5.3-26-7.9-39.1c-2.4-11.8-4.8-23.7-6.9-35.5c-1.4-7.8-2.5-15.7-3.6-23.6c-0.7-5.4-1-10.8-1.9-16.2
		c-1.8-11.1-4-22.1-5.6-33.2c-1-7.3-1.1-14.8-1.5-22.2c-0.3-5.1-0.4-10.2-0.7-15.4c-0.1-2.3-0.3-4.7-0.6-7
		c-1.1-10.7-2.1-21.4-3.6-32c-0.6-4.6-4.3-5.5-8.3-5c-19.7,2.6-39.4,5.2-60,7.9c0.5,5.4,1.3,10.4,1.3,15.5
		c0.3,16.6,0.3,33.3,0.4,49.9c0,5.9-0.2,11.8-0.3,17.8c-0.1,4.7-0.2,9.4-0.3,14c-0.1,3.9-0.4,7.8-0.4,11.7
		c0.1,8.6,0.5,17.1,0.4,25.7c-0.1,9.9-1.1,19.9-0.8,29.8c0.4,11.2,1.7,22.4,2.8,33.6c1,9.9,2.1,19.8,3.4,29.6
		c1.4,10.4,3.5,20.6,4.4,31c0.6,6.8,2.6,13.3,3,20.2c0.7,12.6,4.4,25,6.4,37.6c2.1,13.1,3.7,26.2,5.6,39.3c1,6.9,2.4,13.7,2.8,20.6
		c0.5,8.6,2.2,17.1,2.6,25.7c0.4,9.7,2.6,19.3,4.1,29c1,6.9,2.3,13.7,3.1,20.6c0.7,6.6,0.6,13.2,1.2,19.8
		c1.1,11.8,2.2,23.7,3.8,35.4c0.8,6.5,2.8,12.9,3.8,19.4c2.5,16,4.8,32.1,7.2,48.2c1,6.2,2.2,12.4,3.3,18.7
		c2,11.1,3.7,22.3,5.9,33.4c2.1,10.5,4.6,21,6.8,31.5c2.3,11.1,4.3,22.2,6.6,33.2c2.8,13.5,5.8,27,8.8,40.5
		c1.7,7.6,3.8,15.1,5.4,22.8c2.7,12.6,5,25.4,7.6,38c1.8,8.7,3.5,17.5,5.6,26.1c2.3,10,4.9,20,7.4,30c1.9,7.6,3.8,15.1,5.5,22.8
		c2.7,12.2,4.9,24.5,7.7,36.7c2.2,9.4,4.9,18.8,7.8,28c0.6,1.8,3.1,3.4,5.1,4.2c0.6,0.3,2.8-1.8,3.6-3.2c4.4-8.2,8.6-16.5,12.7-24.7
		c2.7-5.4,5.4-10.8,7.8-16.3c4.3-9.8,8.2-19.8,12.5-29.6c2.6-6,5.8-11.8,8.3-17.9c4.2-9.9,6.8-20.6,12.9-29.7c1.1-1.6,1.4-3.7,2-5.6
		c0.7-2,1.2-4.1,2.1-6.1c5.5-12.6,11.3-25,16.4-37.7c4.2-10.6,7.6-21.6,11.4-32.4c4.9-14.1,9.7-28.2,14.6-42.3
		c2.6-7.3,5.6-14.5,7.9-21.9c2.5-7.9,4.1-16.1,6.8-23.9c2.7-7.7,6.8-15,9.4-22.7c4.5-13.7,8.4-27.6,12.5-41.4
		c1.8-6.2,6.8-7.8,11.8-3.6c1.7,1.4,3.2,3.4,4.1,5.5c4.5,10.5,8.4,21.3,13.2,31.6c4.8,10.2,9.1,20.4,11,31.6
		c0.4,2.5,1.4,5.3,2.9,7.3c4.1,5.3,4.3,11.7,5.7,17.7c1.4,6.2,1.5,12.6,2.8,18.8c1.5,7.2,3.8,14.3,5.6,21.5c4,16.2,7.9,32.5,12,48.8
		c1,3.8,2.3,7.5,3.5,11.3c1.7,5,3.7,9.9,5.1,15c3.4,12.8,8.3,25.1,11.8,37.9c3.8,14.3,9,28.2,13.8,42.1c2.6,7.6,5.3,15.2,8.4,22.7
		c3.5,8.5,8,16.6,10.9,25.3c2.6,7.7,7.3,14.8,7.4,23.3c0,1.4,1.9,3.7,3.3,3.9c2.4,0.4,5,0.1,6.2-3.3c1.9-5.6,4.6-11,6.5-16.7
		c4-11.8,7.7-23.6,11.4-35.5c2.9-9.3,5.7-18.7,8.4-28c1.8-6.2,3-12.6,4.9-18.8c4.3-13.7,9.3-27.2,13.1-41c3.6-13,10-25,11.9-38.6
		c1.3-9.5,4.6-18.6,7.1-27.9c1.6-6.2,3.2-12.4,5-18.6c2.7-9,5.8-17.9,8.4-26.9c2.5-8.7,4.3-17.5,6.6-26.2c1.7-6.3,3.8-12.5,5.5-18.9
		c3.1-11.7,5.9-23.4,9-35.1c1.2-4.6,3.1-9.1,4.2-13.7c2.9-12.6,5.5-25.3,8.4-37.8c2.6-11,5.6-22,8.3-33c1.2-4.7,1.9-9.4,3-14.1
		c1.7-7.7,3.6-15.5,5.2-23.2c0.7-3.3-0.1-7,1-10.1c2.5-7.1,6.3-13.7,8.7-20.8c2.9-8.8,4.6-17.9,7.1-26.8c2.6-9.2,5.7-18.3,8.5-27.5
		c1.9-6.3,3.9-12.6,5.5-19c2.9-11.5,5.6-23.1,8.5-34.7c1.6-6.4,3.6-12.8,5-19.2c1.8-8.4,2.1-17.3,4.9-25.3c4.8-13.6,6-27.8,8.5-41.8
		c1.5-8.2,1.1-16.8,3.6-24.6c3.4-10.4,4.2-21.1,5.3-31.7c1.8-16.8,3.6-33.5,5.3-50.3c1-9.4,1.9-18.9,2.8-28.3
		c1.5-14.5,3-29.1,4.3-43.6c0.9-9.2,2.6-18.5,1.8-27.6c-0.7-7.5-1.7-14.8-0.2-22.2c0.9-4.9-1.4-7.4-6.3-7.2
		c-13,0.5-25.9,1.2-38.8,1.8c-3.3,0.2-7.7-0.6-9.6,1.2s-1.5,6.2-2.1,9.5c0,0.2-0.1,0.3-0.1,0.5c-2.7,9.7-5.1,19.6-8.2,29.2
		c-2.9,9.1-3.8,18.5-4.4,28c-0.3,4.6-0.7,9.1-1.3,13.7c-0.7,5.5-1.6,11-2.3,16.5c-0.3,2-0.2,4-0.3,6c-0.6,9.3-1.3,18.6-1.9,27.8
		c-0.6,9.2-1.1,18.3-2,27.5c-0.4,3.8-2.1,7.5-2.5,11.3c-0.5,4.2,0.1,8.6-0.4,12.8c-1.5,12.1-3.6,24.1-5.1,36.2s-2.7,24.2-3.9,36.3
		c-0.3,3.4,0.3,7-0.1,10.4c-0.9,7.1-2.9,14.1-3.3,21.3c-0.6,12.4-0.2,24.8-0.3,37.2c0,1.3,0.1,2.7-0.1,4c-2,11.4-4.2,22.8-6,34.2
		c-1.8,10.8-3.1,21.6-4.9,32.4c-1.5,8.9-3.1,17.7-5,26.5c-1.1,5-3,9.9-4.2,14.9c-1.8,7.7-3.1,15.6-5.2,23.2
		c-1.8,6.9-4.7,13.5-6.6,20.4c-2.9,10.5-4.5,21.3-8.2,31.5c-4.4,12.1-10.5,23.5-15.5,35.3c-4.5,10.7-8.5,21.5-12.5,32.4
		c-1.7,4.5-2.4,9.3-4.2,13.8c-4.6,11.3-9.7,22.3-14.2,33.6c-4.7,11.8-8.8,23.8-13.3,35.7c-0.9,2.3-2,4.6-2.8,6.9
		c-4.1,13.5-8.2,26.9-12.1,40.4c-1.1,3.6-3.1,5.7-6.9,6c-4,0.2-6.7-1.5-8.2-5.1c-0.9-2.2-1.8-4.3-2.5-6.5
		c-3.8-11.8-7-23.8-11.3-35.5c-4.4-11.8-10.2-23-14.7-34.8c-4.4-11.7-11.2-22.6-13.3-35.3c-1.1-7.1-3.8-14-5.9-21
		c-1.4-4.4-3.1-8.8-4.7-13.1c-4.8-12.9-9.9-25.7-14.4-38.7c-3.2-9.1-5.4-18.5-8.4-27.6c-5.1-15.2-10.1-30.5-16.2-45.3
		C1012,681.7,1010.2,673.5,1000,672z M1116.7,917.3c2.5-5.6,5.4-12,8.3-18.5c1.7-3.8,3.3-7.6,4.7-11.5c2.5-7,4.8-14,7.3-21
		c1.5-4.1,3-8.3,4.9-12.3c2.4-5.1,5.4-9.9,7.9-14.9c1.3-2.7,3.6-6,2.9-8.3c-2.2-7.4,4.5-11.5,5.4-17.9c0.9-6.8,6.3-12.9,7.4-19.7
		c1.4-8.7,5.5-15.9,9.1-23.5c2.8-5.8,5.8-11.6,7.8-17.7c4.3-13.2,7.5-26.8,12.2-39.8c4.4-12.3,7.6-24.6,9.4-37.5
		c1.2-8.8,4.3-17.4,6.6-26c1.4-5.4,3.3-10.8,4.2-16.3c1.9-11.9,3.5-23.9,4.7-36c1.7-17.4,3.1-34.9,4.4-52.3
		c0.4-5.2,0.3-10.5,0.8-15.8c1.2-12.9,2.7-25.7,3.9-38.6c1.2-12.7,1.9-25.5,3.4-38.1c1.3-10.7,3.6-21.2,5.1-31.9
		c1.3-10,2.2-20.1,3-30.2c0.4-4.6,0.2-9.3,0.5-13.9c0.5-8.4,0.9-16.9,1.7-25.3c1.1-12.3,2.5-24.6,3.7-36.9
		c0.5-5.7,0.6-11.5,1.3-17.2c0.7-6.1,1.4-12.2,2.9-18.1c1.5-5.7,4.6-10.9,4.1-17.1c-0.1-0.7,0.8-1.4,1.2-2.1c3.7-6.6,2.3-12-3.4-17
		c-4.6-4-8.3-8.9-12.7-13c-1.4-1.3-3.8-2.3-5.7-2.2c-1.3,0.1-3.2,2.2-3.5,3.7c-2.2,11-4.1,22.1-5.9,33.2c-0.8,4.9-1.4,9.9-1.9,14.8
		c-1.2,11.1-2.2,22.2-3.5,33.3c-0.9,7.6-2.2,15.2-3.3,22.8c-0.1,0.6,0.1,1.3,0.1,2c-0.5,4.7-0.8,9.5-1.4,14.2
		c-1,7.4-2.1,14.7-3.2,22.1c-0.2,1.3-0.4,2.6-0.7,3.9c-1.3,6.2-2.7,12.5-3.8,18.7c-1.2,6.5-1.8,13.2-3.2,19.7
		c-2.8,13.4-6.1,26.7-8.9,40.2c-2.1,10.1-3.7,20.2-6,30.3c-2.1,9.5-5,18.8-7.2,28.2c-1.8,7.6-2.6,15.4-4.5,22.9
		c-2.6,10.1-7,19.8-8.5,30c-2.6,17.4-8.2,33.7-14.9,49.7c-0.3,0.8-0.8,1.5-0.9,2.3c-1.1,7.1-1.9,14.3-3.4,21.3
		c-1.5,6.9-4.1,13.6-5.8,20.5c-1.2,4.8-1.3,9.8-2.4,14.6c-2.5,10.2-5.8,20.3-8.1,30.6c-2.4,11-3.5,22.2-5.8,33.1
		c-2.9,13.8-6.3,27.5-9.6,41.2c-4.5,19-9.1,38-13.8,57c-2,8.3-3.3,17-6.6,24.8c-3.7,8.7-2.7,16.8,0.2,24.7
		c3.9,10.5,12.2,19.3,12.3,31C1111.3,917.3,1113.5,917.3,1116.7,917.3z M824.1,1137.4c-1.1-3.2-2.2-5.9-2.9-8.7
		c-3.2-13.8-6.4-27.7-9.5-41.5c-0.3-1.5-0.7-2.9-1-4.4c-1.1-7.1-1.7-14.3-3.4-21.2c-3.3-14-7.3-27.8-10.8-41.8
		c-2.7-10.7-5.1-21.5-7.7-32.2c-3.6-14.7-7.2-29.3-10.7-44c-1.1-4.4-2-8.7-2.8-13.2c-1.3-7.8-2.1-15.7-3.7-23.5
		c-2.2-10.5-5.1-20.9-7.2-31.4c-2.5-12-4.4-24.1-6.8-36.1c-2.4-11.5-5.5-22.9-7.8-34.4c-2.4-11.7-4.2-23.6-6.4-35.3
		c-0.5-2.8-1.7-5.4-2-8.2c-1.3-10.1-2.2-20.3-3.6-30.4c-0.9-7-2.6-14-3.4-21.1c-1-8.7-1.2-17.4-2.3-26.1
		c-1.7-13.7-4.1-27.4-5.7-41.1c-1.9-16.3-3.4-32.7-5-49.1c-0.9-8.7-0.8-17.6-2.6-26.2c-3.1-15.3-5.6-30.6-7.7-46
		c-1.6-11.6-3.4-23.3-5.3-34.9c-1.5-9.5-3.5-18.9-4.9-28.4c-2.5-16.7-4.8-33.5-6.9-50.3c-1.2-9.8-2-19.6-2.7-29.4
		c-0.4-6.3-0.3-12.6-0.3-19c-0.1-11-0.3-21.9-0.2-32.9c0.2-13.4,0.9-26.9,0.9-40.3c0-13-1.1-26-1.1-39.1c0-10.4,1-20.9,1.2-31.3
		c0.1-2-0.6-4.6-1.9-6.1c-5.4-6.3-11.2-12.2-16.9-18.2c-0.7-0.7-1.9-0.9-3.1-1.4c-0.7,2.9-1.7,5.3-1.9,7.7
		c-0.7,13.2-1.2,26.4-1.7,39.6c-0.2,6.3-0.6,12.6-0.5,18.9c0.2,9.9,0.7,19.9,1.4,29.8c0.8,11.2,1.7,22.4,2.8,33.6
		c1.1,10.6,3.1,21,3.9,31.6c1.5,21.6,2.2,43.2,3.4,64.8c0.5,7.8,1.8,15.5,2.4,23.3c0.7,10.2,1,20.5,1.7,30.7
		c0.8,12.2,1.7,24.3,2.8,36.4c0.8,8.6,2.1,17.2,2.9,25.8c0.8,8,0.9,16.2,1.8,24.2c0.8,7.2,2.2,14.4,3.3,21.6c1,6.9,2.1,13.8,3,20.7
		c1.2,8.7,2.3,17.4,3.4,26.1c0.7,5.2,1.1,10.4,2.1,15.6c0.9,4.8,2.9,9.5,3.6,14.3c1.7,11.5,2.7,23,4.2,34.5c1.2,9.4,3,18.7,4.1,28
		c1.2,10.3,2.4,20.7,2.8,31c0.1,4.3-0.2,8.3,1.8,12.3c0.6,1.2-0.3,3.2-0.4,4.9c-0.1,1.7-0.3,3.5,0,5.2c1.3,8.7,3,17.3,4.2,26
		c1.1,8.2,1.7,16.5,2.7,24.7c0.9,7.4,1.9,14.7,2.8,22.1c0.4,3.7,0.4,7.4,1.1,11c0.8,4.5,2.6,8.9,3.2,13.5
		c2.3,16.6,4.2,33.2,6.3,49.9c0.6,4.8,1.3,9.6,2.5,14.2c3.2,12.3,6.7,24.5,9.9,36.8c2.8,10.4,5.3,20.9,8.1,31.3
		c5,18.6,10.3,37.1,15.1,55.8c3.1,12.1,7.2,23.8,13.9,34.4c7.2,11.2,14.2,22.5,21.3,33.7c3.4,5.4,7,10.7,10.8,16.6
		C820.8,1139.5,822.5,1138.4,824.1,1137.4z M992.8,811c-7,0.9-8.8,6.2-10.5,12.1c-2.1,7.6-4.8,15-7.1,22.6
		c-2.5,8.2-5.2,16.4-7.1,24.8c-0.7,3.1,0.1,6.8,1.1,10c2,6.5,4.7,12.8,6.8,19.2c2.1,6.3,3.4,12.8,5.8,18.9
		c5.2,13.5,10.8,26.8,16.3,40.1c5.3,12.7,10.7,25.3,15.9,38c3.3,8.1,6.5,16.3,9.5,24.6c5.9,16.1,11.6,32.4,17.5,48.5
		c0.8,2.3,2.3,4.4,3.2,6.8c2.9,8.3,5.7,16.5,8.4,24.9c2.4,7.2,5.7,14.3,6.6,21.7c0.6,5.6,3.1,8.1,7.2,10.6
		c8.5,5.1,16.8,10.5,25.3,15.6c1.6,0.9,3.7,1,5.6,1.4c0.5-2.3,1.7-4.7,1.3-6.8c-0.8-4.4-2.3-8.6-3.9-12.8c-1.8-5-3.9-9.9-5.9-14.8
		c-4.8-11.2-10.3-22.2-14.4-33.7c-5-14.3-8.7-29.1-13.1-43.6c-6.4-20.9-13.3-41.6-19.6-62.5c-3.8-12.6-7-25.5-10.3-38.2
		c-0.9-3.3-1.4-6.7-2.1-10.1c-1.8-8-3.8-16-5.5-24c-1.7-8.3-3-16.6-4.6-24.9c-0.4-1.9-1.8-3.5-2.3-5.4c-1.5-6-2.4-12.2-4.1-18.1
		c-2.1-7.3-4.9-14.4-7.3-21.6c-0.5-1.4-0.2-3.2-0.9-4.4C1000.7,823.7,996.7,817.3,992.8,811z M996,661.1
		c-4.1-5.2-7.9-10.6-12.3-15.5c-4.4-4.8-9-4.1-13.3,1c-5,6-10.1,11.8-15.4,17.5c-2.8,3-6.7,5.1-9.1,8.3c-4.9,6.4-9.2,13.3-13.8,20
		c-7.5,11.3-15.1,22.5-22.5,33.9c-5,7.6-9.8,15.4-15,22.9c-5.3,7.8-10.9,15.3-16.3,23c-3.7,5.2-8.9,10.1-10.5,15.9
		c-1.4,5.2-4.5,6.5-8.4,8.3c4.2,20,8,39.8,14.6,58.8c10.1-2.5,11.1-12,15.7-18.2c7.2-9.9,12.8-20.9,19.7-31c6.2-9,14.2-16.7,19-26.7
		c1.8-3.8,5.1-6.8,7.4-10.4c8.1-12.3,12.2-26.7,20.4-39c4.6-6.9,7.8-14.8,11.7-22.2c2.1-4.1,4.6-8,6.7-12.1
		c1.7-3.4,2.7-7.1,4.7-10.3C984.7,677.1,990.3,669.3,996,661.1z M1262,224.3c0.5-0.3,1-0.6,1.4-1c3.4-0.3,6.9-0.7,10.3-0.7
		c6.3,0,12.7,0.5,18.9,0.2c9.8-0.5,19.5-1.3,29.2-2.3c4.2-0.4,4.6-3.7,3.1-6.7c-3.9-7.7-7.6-15.5-12.6-22.5
		c-2.1-2.9-6.9-5.4-10.5-5.4c-6.7,0.1-13.7,1.4-20,3.6c-9.2,3.2-18.2,6.6-28,7.5c-1.5,0.1-3,0.9-5.6,1.7
		C1253.2,207.8,1257.6,216.1,1262,224.3z M758,188.6c-10.1-7.3-19.4-14.7-29.4-21c-3.4-2.1-8.7-2.6-12.8-2
		c-10.9,1.6-21.7,4.3-32.5,6.5c-3.3,0.7-4.3,2.3-2,5.2c2.4,2.9,4.7,6,7.3,8.7c6.5,7,13.4,13.2,24.2,9.3c2-0.7,4.2-1.2,6.3-1.5
		C732,192,744.9,190.3,758,188.6z"/>
	<path class="st1" d="M379.6,1189.3c-12.7,2.2-25.4,4.5-38.1,6.7c-16.9,3-33.9,4.4-50.9,1.9c-19.2-2.9-38.1-7.3-56.1-14.4
		c-4.8-1.9-8.7-6-13.3-8.6c-9.3-5.3-14.8-14.1-21-22.3c-7.7-10.2-16.1-19.9-22.7-30.8c-10.8-17.8-21.8-35.5-28.9-55.4
		c-5.3-14.7-9.7-29.6-13.1-44.8c-2.6-11.4-5.3-22.7-8.2-34c-2.4-9.4-6.2-18.6-7.4-28.1c-1.2-9.9-0.2-20,0-30
		c0.1-4.9,1.1-9.8,1.2-14.6c0.1-3.5,1-6.1,4.5-6.7c11.6-2,23.2-3.7,34.9-5.6c5.5-0.9,10.9-1.9,16.4-2.6c3.8-0.5,7.6-0.6,11.4-1
		c7.5-0.7,11.4,1.8,15.7,10.9c3.2,6.8,8.3,11.8,13.9,16.6c2.6,2.2,4,6.2,5,9.7c2.1,7.6,3,15.6,5.5,23.1c4.2,12.4,9.2,24.6,14.2,36.7
		c7.7,18.9,16.6,37.1,28.3,54c5.7,8.3,12.3,15.5,19.3,22.5c1.7,1.7,4,2.8,6.1,4.1c17.7,10.9,37.1,8.4,55.8,5.1
		c16.3-2.9,32.3-8.6,46.3-18c11.6-7.7,22.7-16.3,33.3-25.4c6.5-5.7,12.5-12.4,17-19.8c4.5-7.2,7.3-15.6,10-23.8
		c3.1-9.2,6.2-18.6,7.5-28.1c1.7-12.8,4.7-25.4,3-38.8c-1.4-11.1-1.8-22.5-5.1-33.3c-1.4-4.7-4.4-8.8-6.3-13.4
		c-5.6-13.9-11.6-27.6-20.4-39.8c-4.3-6.1-9.8-11.3-14.3-17.2c-5.5-7.1-10.1-14.8-16-21.5c-12.4-14.2-27.7-25.2-43.2-35.6
		c-12.8-8.5-26.8-15.2-39.7-23.5c-15.3-9.8-30.2-20.2-44.8-30.9c-9.7-7.1-19.3-14.5-27.9-22.8c-6.1-5.9-10.2-13.8-15.8-20.4
		c-9.3-11.1-19.1-21.7-28.4-32.6c-8.7-10.2-17.7-20.3-25.5-31.2c-4.3-6.1-6.3-13.9-9.3-20.9c-1.1-2.6-2.5-5-3.6-7.7
		c-2.3-5.8-4.4-11.7-6.8-17.5c-4.7-11.3-6.3-23.3-8.1-35.2c-1.7-11.6-3-23.3-4.4-34.9c-1-8.4-2.2-16.8-2.7-25.3
		c-0.5-8.6-0.3-17.2-0.2-25.8c0.2-9.3,0.9-18.6,1.1-27.9c0.3-10.3,0.1-20.5,0.4-30.8c0.3-11.4,0.5-22.8,1.7-34.2
		c1-9.4,3.4-18.7,5.3-28c1.5-7.4,3.2-14.8,4.9-22.1c0.6-2.5,1.6-5,2.3-7.5c2.4-8.9,4.4-18,7.2-26.8c1.6-4.9,4.5-9.4,6.6-14.2
		c5.8-13.4,11.1-27,17.4-40.1c4.9-10.1,10.5-20,18.4-28.3c6.1-6.4,12.2-12.9,18.3-19.4c0.5-0.5,1.2-0.8,1.4-1.4
		c3.2-7.4,10.4-11,15.8-16c5.2-4.8,12.4-7.6,18.4-11.7c11.4-7.7,25-8.3,37.5-12.4c10.4-3.5,20.7-4.6,31.4-3.1
		c10.1,1.4,20.4,2.4,30.2,4.9c18.4,4.7,37.3,8.5,53.1,20.1c13.8,10.1,26.9,20.8,38.1,34.1c9,10.7,13.3,23.4,19.5,35.4
		c1.6,3.1,3.4,6.2,5.1,9.3c4.2,8.2,9,16.2,12.4,24.8c2.2,5.4,2.4,11.7,3.6,17.5c0.3,1.4,0.9,2.9,1.7,4.1c2.6,4.3,0.6,8.4-1.4,11.8
		c-1,1.7-4.6,1.8-7,2.6c-7.4,2.7-14.9,5.5-22.3,8.2c-7.3,2.7-14.7,5.3-22,8.1c-2.6,1-5.6,1.6-7.5,3.4c-4.8,4.6-10.5,2.5-15.8,2.9
		c-8.6,0.6-17.1,1.2-25.7,1.1c-3.3-0.1-8-1.2-9.6-3.5c-9.3-13-21.6-20.3-37.3-23.1c-11.3-2-21.6,0.7-31.3,5.2
		c-4.7,2.2-8.7,7.4-11.1,12.2c-4.9,9.5-9.7,19.4-12.2,29.6c-3.2,13.2-4.9,27-5.7,40.6c-0.8,13.4,0.6,27,0.6,40.5
		c0,6.6-1.3,13.2-1.4,19.7c-0.2,7.2,0,14.4,0.6,21.6c0.9,10,2.4,19.9,3.8,29.9c0.6,4.2,1.5,8.3,2.3,12.5c2.5,13.2,5.7,26.3,8.7,39.4
		c2.9,12.5,7.9,24.2,12,36.2c2.9,8.6,7.4,16.6,11.5,24.8c5,10,10.3,20,15.5,29.9c3.5,6.6,6.7,13.5,10.9,19.6
		c8.4,12.1,17.4,23.7,26.3,35.5c3.9,5.2,7.9,10.2,12.2,15.1c4.8,5.5,10.2,10.4,14.8,16c8.2,10,15.5,20.7,24,30.5
		c8.6,10,18.2,19.3,27.2,29c12.8,13.7,26.2,26.9,38.2,41.2c10.7,12.8,20.3,26.6,29.5,40.6c6.4,9.8,11.7,20.4,16.7,31
		c2.6,5.6,3.6,12,5.4,18c2.7,9.3,5.9,18.6,8.2,28.1c2.5,10.6,4.1,21.4,6,32.1c1,5.7,2.3,11.4,2.6,17.1c0.9,16.2,6.5,32.4,0.7,48.6
		c-1,2.8-2.3,5.5-3.1,8.3c-2.3,7.6-4.2,15.4-6.8,22.9c-1.9,5.7-4.6,11.1-7,16.7c-0.1,0.3-0.5,0.6-0.5,0.8
		c0.5,8.6-6.5,12.7-10.9,18.4c-3,3.8-6.3,7.5-8.6,11.7c-5.1,9.6-12.8,16.9-20.8,23.7c-11.4,9.7-23.1,19.2-35,28.4
		c-5.1,4-10.6,7.5-16.5,10.3c-20,9.4-40.1,18.7-60.4,27.3c-5,2.1-11.1,1.5-16.7,2.2C379.8,1190.5,379.7,1189.9,379.6,1189.3z
		 M165.3,948c0.6,4.1,0.7,9.5,2.3,14.4c3,9.4,6.5,18.7,10.3,27.9c4.4,10.5,9.4,20.8,14.1,31.3c5.8,13.2,11.5,26.5,17.2,39.8
		c2.4,5.7,4.3,11.6,6.7,17.3c3.7,9,7.3,18,11.5,26.7c4.7,9.8,9.4,19.7,15.1,29c3.9,6.4,9,12.5,14.5,17.7c8.4,7.9,16.9,16,26.6,22.2
		c11.8,7.6,25.4,10.5,39.6,9.5c8.3-0.5,16.5-1,24.7-2.1c11.7-1.6,23.3-3.5,34.9-5.6c7.3-1.3,14.9-2.2,21.7-5
		c15.8-6.4,31.4-13.6,46.8-21.1c6.1-2.9,11.6-7.1,17-11.2c6.6-5.1,12.6-10.9,18.9-16.2c13.1-11,27.4-20.8,34-37.7
		c0.6-1.7,1.9-3.1,3.1-4.5c10.5-12.7,18.4-26.6,22.1-42.9c1.6-7.1,5.4-13.7,6.7-20.8c1.7-8.8,2.4-17.8,2.4-26.8
		c0.1-7.5-1-15.1-2.2-22.6c-0.9-5.5-2.7-10.9-3.9-16.4c-2.9-12.6-5.7-25.2-8.6-37.7c-3.1-13.4-7.4-26.5-13.8-38.6
		c-8.5-16.1-16.6-32.5-28-46.8c-7.5-9.3-15.1-18.5-23-27.4c-5.5-6.2-11.7-11.6-17.4-17.7c-8.6-9.3-16.8-18.8-25.3-28.2
		c-6.2-6.9-12.6-13.7-18.6-20.8c-9.6-11.2-19-22.6-28.5-33.8c-5.8-6.8-11.9-13.4-17.2-20.5c-7-9.4-13.6-19.2-20.1-29
		c-8.3-12.8-17-25.3-24.2-38.8c-7.7-14.5-14.1-29.7-20.6-44.8c-4-9.5-8.4-19.1-10.4-29c-1.9-9.8-8.1-18.7-6.1-29.2
		c0.1-0.4-0.5-0.8-0.6-1.3c-2.6-10.2-5.7-20.3-7.7-30.6c-1.7-8.9-2.7-18.1-3.1-27.2c-0.6-14-0.5-28.1-0.4-42.2
		c0.1-7.9,1.3-15.9,1.1-23.8c-0.3-13.2-2.9-26.3-0.2-39.6c0.9-4.2,1.5-8.4,2.3-12.6c1.3-6.9,1.7-14.2,4.3-20.5
		c4.6-11.2,11.2-21.7,16-32.9c4.8-11.1,14.6-17.4,22.7-25c9.2-8.6,21.5-12.4,33.6-15.7c7.2-2,14.7-1.7,22,0.7
		c19.9,6.5,34.9,19.2,46.2,36.6c2.1,3.2,4.4,6.2,6.9,9.2c4.1,5.1,9.2,2.6,13.6,0.9c12.8-4.9,25.5-10.1,38-15.5
		c1.3-0.6,2.6-3.2,2.5-4.7c-0.4-4.3-1.7-8.5-2.2-12.8c-1-8.7-5.4-16.1-9.7-23.4c-5.6-9.6-11.5-19-17.6-28.2
		c-6.1-9.3-13.6-17.2-24-21.9c-10.1-4.6-20.4-8.7-30.3-13.6c-10.4-5.2-21.4-8.1-32.8-9.7c-12.6-1.8-25.3-2.5-38,0.1
		s-24.5,7.4-35.5,14c-5.7,3.4-11.1,7.3-16.2,11.4c-3.7,3-7.3,6.3-10.2,10.1c-4.8,6.5-9,13.4-13.3,20.2c-3.7,5.9-7.9,11.6-10.7,17.8
		c-8.8,19.5-14.2,40.3-18.9,61.1c-3.5,15.4-5.2,31.2-7.4,46.8c-2.7,19.5-7.2,38.8-7.1,58.7c0,9.9-1.3,19.8-2,29.7
		c-0.4,6.4-0.7,12.9-1.1,19.3c-0.3,5.1-1.2,10.2-1.1,15.3c0.2,16.6,0.8,33.1,1.2,49.7c0.3,13.7,0.3,27.4,0.5,41.1c0,1-0.1,2-0.2,3
		c-1.6,15.7,2.1,30.9,5.6,45.7c2.8,12,9,23.1,13.7,34.6c1.2,3.1,1.5,7.4,3.8,9c8.1,5.5,10.5,14.7,15.8,22c4.9,6.7,8.8,14.2,17,17.6
		c0.7,0.3,1.5,1,1.8,1.7c2.9,8,10.3,11.6,16.3,16.4c9,7.1,18.6,13.3,27.9,19.9c7.9,5.5,15.7,11.1,23.7,16.3
		c17.7,11.4,36,21.9,53.1,34.1c11.3,8.1,21.3,18.2,31.4,28c7.7,7.5,14.4,15.9,21.6,23.9c2.9,3.2,6,6.2,8.8,9.5
		c3.1,3.6,6.2,7.1,8.8,11c2.5,3.7,4.5,7.7,6.7,11.6c5.2,9.4,10.8,18.6,15.3,28.4c5.5,12.1,10.1,24.5,14.7,36.9s10.3,24.1,13.3,37.3
		c3.5,15.4,4.8,30.6,2.5,45.9c-1.4,9.2-5.9,18-9.6,26.9c-5.6,13.6-15.4,23.8-27.5,31.9c-5.5,3.7-11.4,6.8-16.4,10.9
		c-9.1,7.5-20,11-30.8,14.5c-11.9,3.9-24.2,6.6-36,10.8c-10.8,3.7-21.7,5-32.8,4.2c-10.8-0.8-21.5-1.9-32.2-3.4
		c-15.5-2.2-29.9-7.9-42-17.9c-6.3-5.2-11.9-11.4-17.2-17.7c-4.7-5.5-8.8-11.6-12.7-17.7c-3.3-5.1-5.8-10.7-8.9-16
		c-7.5-13-13.1-26.7-16.5-41.2c-0.2-0.9-0.8-1.7-1.3-2.5c-7.2-9.6-10.9-20.8-14.8-31.9c-2-5.6-4.4-11-6.9-16.4c-0.4-1-2.2-2-3.2-1.9
		c-3.9,0.3-8.1,0.5-11.7,1.9C181.7,940.3,174.3,944,165.3,948z M206.5,618.3c-1.2-4.1-2-7.2-3-10.2c-2.1-6.9-4.8-13.8-6.2-20.8
		c-1.4-7.1-1.8-14.4-2.3-21.6c-0.6-9.5-0.8-19.1-1.1-28.7c-0.2-10.2-0.4-20.4-0.4-30.5c0-5.6,0.1-11.2,0.1-16.7
		c-0.1-14.7-0.5-29.4-0.3-44c0.1-10.6,0.8-21.2,1.2-31.7c0.1-3.8,0-7.6,0.4-11.4c0.9-10.3,2.1-20.6,3.1-30.9
		c0.2-2.1-0.1-4.3,0.3-6.3c0.8-4,2.2-7.9,2.9-11.9c2.5-15.7,4.5-31.5,7.1-47.2c2-12.1,4.6-24,7.3-36c1.9-8.2,5.5-16.2,6.6-24.5
		c1.2-8.4,8.3-14.6,7.9-23.4c0-0.1,0.2-0.3,0.3-0.4c4.8-7.4,9.6-14.9,14.4-22.3c1.4-2.1,3.4-3.9,4.6-6.2c5.7-10.5,13-19.9,22.9-26.4
		c9.6-6.3,20.3-10.9,30.4-16.6c11.7-6.6,24.5-9.7,37.5-9c15.7,0.8,31.7,2.2,46.7,6.5c15.9,4.6,30.9,12.8,46.2,19.5
		c3.5,1.6,5,1.7,7.2-0.3c-5.5-4.7-10.7-9.8-16.5-14c-10.5-7.5-22.4-12.2-34.8-15.2c-12.2-2.9-24.7-4.9-37-7.7s-24.4-4.8-37-1
		c-8.8,2.7-18,4.1-26.6,7.1c-7.6,2.6-15,6.2-22,10.1c-6.3,3.6-12.4,7.8-17.8,12.6c-6.6,6-12.8,12.6-18.4,19.5
		c-6.8,8.5-12.9,17.6-19.2,26.4c-3.7,5.3-8,10.3-10.8,16c-4.3,8.9-7.5,18.3-11.2,27.4c-1.9,4.8-4.3,9.4-5.8,14.3
		c-2.9,9.2-5.6,18.4-8.1,27.7c-2.5,9.3-5.1,18.6-7,28c-2.9,13.8-6.4,27.6-7.6,41.6c-1.6,18.2-1.5,36.5-1.8,54.8
		c-0.3,13.1-0.3,26.2,0,39.2c0.1,7.6,0.8,15.3,1.7,22.9c2.4,19.9,2.9,40,7.7,59.6c6.2,25,13.3,49.7,26.6,72.1
		C196.9,612.7,199.6,617.1,206.5,618.3z M136.6,927.4c-1.6,1.6-4.2,3-4.5,4.8c-2.1,11.6-1.6,23.3,1.4,34.6
		c3.6,13.6,8.4,26.9,12,40.5c3.7,13.6,5.8,27.6,10.1,40.9c5.9,18.2,13.8,35.6,23.3,52.2c3.5,6.2,6.7,12.6,10.7,18.4
		s9.2,10.8,13.3,16.5c9.7,13.3,20.5,25.5,34,35.1c6.9,4.8,14.8,6.5,23.2,7c-2.8-4.3-6.2-7.8-9.4-11.5c-4.8-5.7-9.7-11.4-14-17.4
		c-5.3-7.4-10.7-14.8-14.8-22.8c-5.9-11.5-10.6-23.5-15.8-35.3c-3.1-7.1-6.4-14.2-9.1-21.5c-3.2-8.8-5.4-17.9-10.4-26.1
		c-3.9-6.4-6.6-13.5-9.5-20.5c-1.6-3.9-2.3-8.3-4-12.2c-2.9-7-6.5-13.8-9.4-20.8c-4.6-11-10.2-21.6-11.1-33.8
		c-0.2-2.9-0.6-6.2-2.1-8.6C146.5,940.7,141.8,934.6,136.6,927.4z M482,942.1c-3.2,10.2-2.7,21.2-6.8,31.4
		c-3.7,9.2-4.9,19.4-8.5,28.6c-4.1,10.2-8.8,20.3-14.9,29.3c-8.9,13.2-20.9,23.9-34.1,32.5c-17.4,11.3-35.3,22.3-56.2,26.5
		c-1.1,0.2-2,1.6-2.9,2.4c0.2,0.5,0.3,1,0.5,1.5c4.6,0,9.3,0.8,13.6-0.2c12.1-2.8,24.2-5.8,36-9.8s23.3-8.8,34.5-14.2
		c6.5-3.1,12.3-7.9,18-12.4c5.4-4.2,11.2-8.4,15.4-13.7c4.3-5.5,6.4-12.7,10.5-18.4c7.5-10.6,9.9-22.9,9.7-34.9
		c-0.2-13.1-3.5-26.2-6.2-39.2C489.6,947.7,488.9,941.9,482,942.1z M337.3,259.1c0.1,0.6,0.3,1.3,0.4,1.9c2,0.6,3.9,1.3,5.9,1.8
		c5,1.3,10.2,1.9,14.9,3.8c10.9,4.3,20.1,11.4,28.7,19.3c2.1,1.9,5.4,3.3,8.3,3.5c5.6,0.4,11.3-0.3,16.9-0.6
		c1.3-0.1,2.7-0.4,5.1-0.8c-5.5-7.4-10.2-13.9-15.2-20.3c-10.7-13.8-25-20-42.2-18.3c-5.7,0.6-11.2,3.7-16.6,5.9
		C341.4,256.3,339.4,257.9,337.3,259.1z M146.5,916.7c4,4.7,7.1,8.3,10.2,11.9c2.6,3.2,5.8,3.9,9.8,2.9c10.2-2.4,20.4-4.6,31.2-7.1
		c-1.7-3.3-3.3-6.2-4.7-9.3c-1.5-3.2-3.7-4.6-7.5-4.2c-9.5,1-19.1,1.5-28.6,2.6C153.7,913.9,150.6,915.4,146.5,916.7z"/>
	<path class="st1" d="M1576.8,499.8c-0.9,5.7-2.2,11.4-2.5,17.1c-0.6,11.4-0.5,22.9-1,34.3c-0.2,4.5-0.8,8.9-1.2,13.4
		c-0.9,9.9-1.7,19.8-2.5,29.7c-0.9,11.5-2,22.9-2.6,34.4c-0.3,5.2,0.3,10.2-2.5,15.3c-1.7,3,0.1,7.9,0,11.9c0,2.8-0.3,5.6-0.7,8.3
		c-0.2,1.5-1.3,2.8-1.5,4.2c-1,9.1-1.9,18.3-2.7,27.4c-0.2,2.5-0.4,5-0.4,7.5c0.1,4-0.2,7.5-2.3,11.3c-2,3.6-2,8.5-2.1,12.9
		c-0.3,7.5-0.6,14.7-2.7,22.2c-2.8,9.8-2.7,20.3-4,30.6c-0.9,7.2-2,14.5-3,21.7c-1.3,9.5-2.8,19.1-4,28.6
		c-1.6,12.1-3.1,24.3-4.6,36.4c-0.6,5.1-1,10.2-1.8,15.2c-0.2,1.7-1.9,3.4-1.7,5c1,9.1-3.3,17.4-3.7,26.2
		c-0.6,10.8-0.7,21.6-0.8,32.4c-0.1,16.6,0.9,33.3-0.2,49.8c-0.8,12.5-4.4,24.8-6.5,37.2c-1.1,6.6-1.6,13.2-2.5,19.8
		c-1.2,9.2-2.9,18.4-3.6,27.7c-1.1,13.2-1.6,26.4-2.3,39.7c-0.2,3.5-0.1,7,0.1,10.5c0.7,11.9,1.6,23.9,2,35.8
		c0.1,3.4-1.5,6.8-2.1,10.3s-0.9,7.1-1.1,10.7c-0.2,4,0.3,8-0.4,11.9c-0.3,1.7-2.6,4.3-4.2,4.5c-7.9,0.9-15.8,1.1-23.7,1.5
		c-11.3,0.6-22.6,1.5-33.8,1.7c-8.5,0.2-17.1-0.3-25.6-1c-1.6-0.1-3.9-2.4-4.5-4.1c-5.4-16.3-10.3-32.8-15.9-49
		c-4.7-13.7-10.4-27.1-15.2-40.8c-1.5-4.4-1.4-9.3-2.3-14c-0.5-2.7-2.3-5.3-2.4-8c-0.9-13.9-1.3-27.8-2-41.8
		c-0.2-3.3-0.9-6.5-0.9-9.8c-0.2-13.4,0-26.9-0.3-40.3c-0.2-11.1-1.1-22.2-1.5-33.3c-0.1-2.2,0.8-4.5,0.9-6.8
		c0.4-10.2,0.6-20.4,0.9-30.6c0.2-6.9,0.4-13.9,0.8-20.8c0.3-6.4,0.4-12.9,1.2-19.3c1.3-10.6,3.2-21.2,4.4-31.8
		c0.8-7.7,0.6-15.4,1.3-23.1c1.2-14.2,2.6-28.4,4.1-42.6c0.9-8.7,2.8-17.3,3.4-26.1c0.6-9.1-0.1-18.2,0.2-27.3
		c0.3-8.8,1.3-17.6,1.6-26.4c0.2-5.4-0.2-10.8-0.3-16.2c-0.1-3.3-0.5-6.7,0.1-9.9c2.1-13,1-26.1,0.8-39.2c0-3.6,1-7.2,1.4-10.9
		c0.9-8.9,2.2-17.9,2.5-26.8c0.4-12.7-0.3-25.5,0.1-38.2c0.3-9.2,2-18.3,2.7-27.5c0.6-8.2,0.7-16.4,1.3-24.6c0.2-4,0.9-8,1.3-12
		c0.8-7.7,1.6-15.3,2.1-23c0.7-9.7,0.9-19.5,1.7-29.2c0.5-6.6,1.7-13.1,2.4-19.7c1.4-13.8,2.2-27.6,4.1-41.3c1.8-12.8,5-25.3,7.1-38
		c1.8-11.1,3-22.4,4.5-33.6c0.2-1.5-0.1-3.1,0.4-4.5c4.5-12.7,3.1-26.2,5.1-39.3c1.2-7.8,2.3-15.7,3.3-23.5
		c0.4-3.3,0.4-6.7,0.7-10.1c0.5-6.5,0.5-13.1,1.7-19.4c1.8-9.1,4.2-18,7.2-26.8c0.7-2.2,4.5-4.1,7.1-4.6c7.2-1.4,14.5-1.7,21.7-2.9
		c7.5-1.3,14.9-1.9,22.6-1.5c8,0.4,16-2.2,24.1-2.7c11.4-0.7,22.8-0.7,34.2-1.1c1.7,0,3.3-0.2,5-0.2c8.9-0.1,17.9-0.6,26.8-0.1
		c2.4,0.1,5.5,2.6,7,4.9c7.8,12.5,15.9,24.9,22.4,38c3.5,7.2,4.2,15.8,5.9,23.9c0.3,1.2-0.2,2.7-0.7,3.8c-4.4,8.6-4.2,18.2-6.1,27.4
		c-1.7,8.3-4.4,16.3-6.7,24.5c-0.7,2.7-4.2,5.1-0.5,8.4c0.6,0.5-0.3,3.1-0.8,4.6c-1.8,5.9-3.8,11.7-5.6,17.6
		c-0.3,1.1-0.5,2.2-0.8,3.3c-2.2,10.8-0.4,21.9-4.5,32.7c-3.8,10-6.6,20.6-8.4,31.2c-1.5,8.9-3.9,17.6-5.7,26.4
		c-1.9,9.3-2.6,18.8-3.8,28.2c-1.5,11.7-3.1,23.3-4.6,35c-0.3,2.1,0.2,4.2,0.3,6.3C1577.1,499.6,1576.9,499.7,1576.8,499.8z
		 M1487.6,232.3c-0.7,10.8-1.1,20-2,29.3c-0.9,9.4-2.6,18.7-3.4,28c-0.9,10.2-0.5,20.6-1.6,30.7c-1.5,13.5-3.9,26.8-6,40.3
		c-0.8,5.1-2,10.1-2.6,15.2c-1.1,8.8-2,17.7-2.9,26.6c-0.8,8.6-1.3,17.2-2.3,25.8c-1.2,10.6-3.2,21.2-4,31.8
		c-1,12.5-1.1,25-1.7,37.6c-0.4,6.4-1.1,12.9-1.8,19.3c-0.8,7.4-1.8,14.8-2.5,22.1c-0.5,5.6-0.5,11.3-1.2,16.8
		c-2,14.2-4.6,28.4-6.4,42.6c-1,7.9-1.1,15.8-1.6,23.8c-0.3,5.3-0.6,10.6-0.7,15.9c-0.3,9.5-3.4,18.9,0.1,28.4
		c0.2,0.5,0.4,1.4,0.1,1.8c-3.9,4.7-3.9,10.2-3.8,15.8c0.1,3.5,0.9,7.1,0.2,10.4c-4.3,20.7-5.2,41.6-5.5,62.7
		c-0.1,4.4-1.9,8.7-2.1,13.1c-0.7,13.1-1,26.2-1.5,39.3c-0.3,6.6-0.8,13.3-1,19.9c-0.3,10.5-0.4,20.9-0.8,31.4
		c-0.4,8.9-1.5,17.8-1.7,26.7c-0.2,13.3,0.6,26.7,0.2,40c-0.4,14.3-1.7,28.5-2.3,42.8c-0.2,4.1,1.3,8.3,1.1,12.4
		c-0.7,12.4-0.1,24.8-2.6,37.1c-0.2,0.9-0.6,1.9-0.6,2.8c0.7,11.1,1.5,22.2,2.2,33.4c0.1,0.8-0.4,1.6-0.5,2.4
		c-0.2,2.2-0.4,4.5-0.3,6.7c0.1,2.8,1,5.6,0.9,8.4c-0.6,12.7-1.4,25.4-2.1,38.1c-0.2,2.9,0,5.9-0.1,8.8c-0.1,3.9-0.6,7.8-0.5,11.6
		c0.1,3.9,1.5,7.8,1.2,11.7c-0.8,8.4-1.6,16.6,0.5,25c1,4,0.4,8.3,0.8,12.4c1.3,12.1,2.9,15.9,14.7,15.7c17.6-0.3,35.2-0.5,52.8-1
		c1.3,0,3.5-2.1,3.6-3.4c0.9-8.8,1.9-17.6,1.8-26.3c-0.2-17.6-1.2-35.2-1.7-52.8c-0.2-8.5-1.2-17.2,0.3-25.4c3.2-17,6.1-34,7.1-51.3
		c0.3-5.2,1.3-10.4,1.9-15.6c0.9-8.2,2-16.4,2.6-24.6c0.7-8.3,0.8-16.6,1.4-24.8c0.4-5.3,1.7-10.5,1.8-15.7
		c0.1-10.1-0.9-20.3-0.4-30.4c0.7-13.8,0.6-27.9,4-41.1c5-18.8,7.3-37.8,9.4-57c0.9-8.4,1.9-16.8,3.1-25.2c2.2-15.6,5-31.1,6.7-46.8
		c1.4-12.7,0.5-25.7,2.5-38.3c1.8-11.1,2.5-22.1,2.5-33.3c0-3.3,0.1-6.8,1.1-9.9c5.2-16.9,6.7-34.1,6.9-51.7
		c0.1-13.4,1.5-27,4.2-40.1c3.1-14.8,5.4-29.4,5.3-44.5c-0.1-12,0.7-24,1.5-35.9c0.4-6.1,2.2-12.1,2.9-18.2c1-8.7,1-17.6,2.4-26.3
		c3.5-20.5,7.3-40.9,11.5-61.3c1.9-9.3,4.9-18.3,7.5-27.4c3.7-12.8,7.4-25.7,11.1-38.5c1.8-6.2,2.7-12.8,5-18.8
		c2.6-6.9,6.7-13.4,4.3-21.3c-0.2-0.6,0.2-1.3,0.3-2c1.5-10.3,3.8-20.5,4.1-30.9c0.4-11.4-3.7-18.6-16.1-19.4
		c-15.9-1.1-31.9-2-47.8-3c-14.8-1-29.5-2.4-44.2-3.2C1497.4,231.3,1492,232.1,1487.6,232.3z M1416.2,1133.7
		c0.5-1.8,1.2-3.5,1.4-5.3c0.3-2.7,0-5.5,0.3-8.3c1.4-11.3,2.4-22.6,1.5-34c-0.1-1.8-1-3.5-1-5.3c0-10.7,0.1-21.4,0.2-32.1
		c0.1-6.4,0.1-12.8,0.3-19.3c0.2-4.6,1-9.2,1-13.8c-0.1-6.4-0.9-12.9-1.2-19.3c-0.2-4.9,0-9.8,0.2-14.7c0.2-3.9,1.2-7.7,1.2-11.6
		c-0.2-12.1-1-24.2-1-36.3c0-14.8,0.6-29.6,1-44.5c0.3-12.1,0.7-24.1,1.1-36.2c0.4-14.6,0.8-29.3,1.4-43.9
		c0.5-11.1,1.5-22.2,2.2-33.2c1-15.3,2-30.7,2.8-46c0.5-8.4,0.6-16.9,1-25.3c0.1-2.1,0.3-4.2,0.5-6.3c1-9.2,2.3-18.4,3.1-27.6
		c0.6-7.4,0.5-14.9,1.2-22.3c0.9-9.4,2.6-18.7,3.3-28.1c1-12.2,1.5-24.4,2.3-36.6c0.4-6.6,0.9-13.2,1.6-19.7
		c1.6-13.9,3.4-27.8,4.9-41.7c1.1-9.7,1.9-19.4,2.6-29.1c0.8-10.8,1.3-21.5,1.9-32.3c0.5-9.4,0-19.1,1.9-28.2
		c3.5-16.6,4.9-33.3,5.3-50.2c0.2-9.7,1.1-19.7,3.7-29c2.8-9.7,2.8-19.5,3.6-29.3c0.7-8.4,0.2-16.9,0.9-25.3
		c1.2-14.3,5-28.2,5.5-42.6c0.2-6.5,0.6-12.9,0.9-19.4c0-0.9-0.3-2-0.7-2.8c-1.7-3.1-3.3-6.5-5.5-9.2c-1.6-2-4.1-4.3-6.3-4.4
		c-3.4-0.1-4,3.3-4,6.3c0,0.5,0.1,1,0.1,1.5c-0.6,7.1-0.9,14.2-1.8,21.2c-0.9,7.1-5.2,13.7-3.6,21.3c0,0.2,0,0.3,0,0.5
		c-1.5,14.9-2.4,29.9-4.5,44.8c-1.6,11.2-1.7,22.6-5.9,33.7c-3.2,8.7-2.9,18.6-4.6,27.9c-2.2,11.8-6.1,23.3-6,35.6
		c0,3.8-0.3,7.6-0.8,11.3c-0.6,5.4-1.7,10.8-2.1,16.3c-1.4,17.6-2.5,35.3-4.1,52.9c-0.9,10.4-2.6,20.6-3.8,31
		c-0.6,5.1-0.7,10.2-1,15.4c-0.7,11.6-1.4,23.1-2.2,34.7c-0.6,8.2-1.4,16.4-1.9,24.6c-0.4,6-0.7,11.9-1,17.9
		c-0.7,10.6-1.4,21.2-2.1,31.9c-0.3,4.9-0.6,9.8-1,14.7c-0.2,2.3-1.1,4.5-1.1,6.8c0.1,7,2,13.8,0.5,20.9c-0.7,3.2-0.5,6.6-0.7,9.9
		c-0.3,5.7-0.6,11.4-0.9,17.1c-0.2,3.7-1,7.5-0.9,11.2c0.1,9.5,1.3,19.1,0.6,28.5c-1.4,17-4.1,33.8-5.8,50.8
		c-1.9,19.4-3.2,38.9-4.7,58.4c-0.1,1.5-0.4,3-0.6,4.5c-0.6,6.3-1.4,12.5-1.7,18.8c-0.2,5.2,0.1,10.5,0.2,15.7c0,3.4,0.2,6.7,0,10.1
		c-0.3,6.9-0.9,13.7-1.2,20.6c-0.1,2.8,0.5,5.6,0.4,8.4c-0.3,9.7-1,19.4-1.1,29c-0.2,10.4,0.1,20.8,0.2,31.2c0,3.2-0.2,6.3,0,9.5
		c0.8,12.5,1.9,24.9,2.4,37.3c0.5,10.7-1,21.4,2.1,32.1c2.6,8.9,3.3,18.4,5.6,27.4C1404.2,1120.2,1405.6,1129.2,1416.2,1133.7z
		 M1600.3,227.2c-0.2-1.5-0.1-2.1-0.3-2.5c-4-6.8-7.9-13.7-11.9-20.5c-3.6-6.1-8.3-10-16-9.6c-14.4,0.9-28.8,1.2-43.2,2.1
		c-13.1,0.8-26.2,2.1-39.2,3.1c-4.8,0.4-9.7,0.4-14.4,1c-2.8,0.4-7.5,0.3-6.4,4.9c1.8,7.5,7.4,15.2,17,15.4
		c13.7,0.3,27.4,1.3,41,2.1c20.3,1.1,40.7,2.2,61,3.3c1.6,0.1,3.3,0.5,4.9,0.5C1595.1,227.3,1597.5,227.2,1600.3,227.2z"/>
	<path class="st0" d="M1888.8,493.8c-5.9,2-6.5,5.7-7,10.4c-0.8,8.7-2.7,17.4-4.2,26c-0.3,1.5-0.9,2.9-0.9,4.4
		c0.2,21.6-1.2,43.2,1.4,64.9c1.5,12.2-0.4,24.7-0.7,37.1c-0.1,6.5,0.1,13.1-0.1,19.6c-0.4,15.2-1,30.4-1.5,45.6
		c-0.4,12.6-0.3,25.3-0.9,37.9c-1.2,22.2-2.9,44.4-4.2,66.6c-0.6,10.3-0.2,20.6-0.7,31c-0.7,16.3-2,32.5-2.7,48.8
		c-0.5,10.3,0,20.7-0.6,30.9c-0.5,8.4-1.8,16.8-2.8,25.1c-1,8.2-1.5,16.6-3.2,24.7c-3,15-6.9,29.8-10.1,44.8c-1,4.8-0.6,10-1.2,14.9
		c-3.4,24.4-6.1,48.9-10.8,73c-3.9,20.2-10,39.9-18.8,58.8c-4.1,8.7-5.5,18.7-8.1,28.2c-0.5,1.9-0.9,3.8-1.3,5.3
		c-7.5,0-14.6,0-21.7,0c-2.7,0-3.5-1.4-3-3.9c0.9-4.6,2-9.1,2.7-13.7c0.8-4.9,1.8-9.8,1.8-14.8c0.2-23,0.3-46,0.1-69
		c-0.2-21-1-41.9-1-62.9c0-7.3,0.7-14.7,2.3-21.7c2.9-12.9,4-25.9,4.2-39.1c0.1-6,1.2-12.1,2-18.1c1-7.8,2-15.5,3-23.2
		c1.6-12.5,3.4-25,4.8-37.6c0.6-5.6,0.5-11.3,1-16.9c1.1-15.2,1.1-30.7,4-45.7c2.5-13,1.8-25.8,2.6-38.7c0.7-11.6,2.4-23.2,3-34.8
		c1.1-19.9,1.6-39.8,2.6-59.7s2.2-39.9,3.5-59.8c0.9-14.6,4.2-29.3,2.7-43.6c-2.5-24.5-1-48.8-1.3-73.2c-0.2-16.3,0.2-32.6,1.7-48.8
		c2.3-24.7,4.2-49.4,4.6-74.2c0.2-12.9,1.2-25.9,2.7-38.8c1.4-11.7,3.9-23.2,5.9-34.8c0.9-5.5,1.5-11.1,2.4-16.7
		c2.4-14.5,4.9-29,7.2-43.4c0.8-5.2,6.2-7.7,10.5-4.4c10.5,8,21,16.1,31.3,24.5c6.7,5.5,13.1,11.3,19.1,17.4
		c6.6,6.7,12.8,13.8,19,20.9c6.7,7.5,13.4,15,19.9,22.7c11.9,14.1,21.8,29.5,30.4,45.8c8,15.2,14.7,31.1,25.9,44.5
		c3.1,3.8,4.9,8.6,7.3,13c6.2,11.2,12.5,22.4,18.5,33.8c3.7,7,6.7,14.3,10.5,21.2c6.7,12,11.7,24.7,15.6,37.9
		c2,6.8,6.5,12.9,9.5,19.5c5.7,12.7,10.8,25.6,16.7,38.2c3.6,7.8,8.2,15,12.3,22.6c2.4,4.5,4.2,9.3,7,13.5c2.9,4.3,6.7,7.9,10,12
		c0.6,0.8,0.5,2.2,0.7,3.3c0.8,4.5,0.6,9.5,2.6,13.4c3,6,12.5,5.2,16.1-0.8c3.2-5.2,6.1-10.5,9.8-15.3c7.7-10.1,16.2-19.5,23.5-29.8
		c7.6-10.6,18.8-17.2,27.1-27c5.8-6.9,11.2-14.1,17-20.9c4.2-4.9,8.7-9.4,13.1-14c0.7-0.7,1.8-1.3,2-2.1c1.6-7.5,9.2-10.5,12.6-17
		c2.4-4.7,7.7-8.1,12-11.7c10.3-8.8,17-20.3,24.4-31.4c4.5-6.7,10.5-12.3,15.8-18.4c6.9-7.8,14.3-15.3,20.6-23.6
		c8.3-10.8,16.6-21.6,27.5-29.8c7.4-5.6,10.9-14.1,16-21.3c5.3-7.5,9.9-15.2,17-21.3c3.2-2.7,4.9-7.1,7.8-10.1
		c11.9-12.2,23.7-24.5,36.3-35.9c9.1-8.3,19.6-15.2,29.4-22.8c1.6-1.2,2.9-2.7,4.3-4.1c0.4-0.4,0.4-1.4,0.8-1.8
		c6.7-5.2,13.5-10.3,20.2-15.6c3.9-3,7.5-6.2,12.1-10c-1.1,0-0.8,0-0.4,0c12.6,1,9.5,11.8,10,18.4c1.7,26.9,1.9,53.9,3,80.8
		c0.4,10.1,2.4,20.2,2.7,30.3c0.8,22.9,1.1,45.9,1.4,68.9c0.1,4.4-1.4,8.9-1.2,13.4c0.5,9.6,1.5,19.2,2.3,28.8
		c0.2,2.3,0.3,4.6,0.4,6.9c0.9,17.5,2.7,35,1.2,52.6c-1.1,12.9-2,25.8-2.5,38.8c-0.4,10.5,0.3,21-0.2,31.4
		c-0.5,10.2-1.9,20.4-2.8,30.6c-0.8,10.3-0.8,20.6-2.2,30.8c-1.8,13.9-5,27.5-6.5,41.4c-1.2,10.5-0.8,21.2-0.8,31.9
		c-0.1,20.3,0.8,40.7-0.4,60.9c-0.8,13.5-4.6,26.8-7,40.2c-1.3,7.2-2.5,14.4-3.8,21.6c-2.9,15.7-5.8,31.4-8.7,47.1
		c-3.1,17-5.8,34-9.6,50.8c-3,13.3-6.6,26.4-11.2,39.2c-3.7,10.3-9.5,19.7-13.8,29.8c-2.7,6.5-4.2,13.6-6.4,20.4
		c-5.1,15.7-10.2,31.3-15.4,46.9c-4.3,12.7-9.1,25.3-13.1,38.1c-2.9,9.2-4.8,18.7-7.3,27.9c-2.3,8.6-3,9.1-12,9.3
		c-9,0.1-18,0.1-27,0c-1.8,0-3.6-0.3-6.6-0.7c5.5-3.5,5.3-8.1,5.6-12.8c0.7-8.8,2.1-17.6,3.1-26.4c1.7-14.7,8.2-27.8,13.9-41.3
		c5.2-12.4,9.1-25.3,13.4-38c2.2-6.6,3.7-13.5,6.3-19.9c5.8-14.5,8.1-29.8,10.7-45.1c3.8-22.3,5.9-44.8,6.6-67.4
		c0.4-14.2,1.5-28.3,2.8-42.4c0.6-7,2.4-14,3.6-21c0.2-1.1-0.3-2.3-0.2-3.4c0.3-4,0.7-8,1.1-12c0.1-1.1-0.1-2.2-0.1-3.3
		c0.2-5.4,0.4-10.8,0.6-16.2c0.1-1.5,0.3-3,0.1-4.4c-0.5-3.9-2.1-7.8,0.9-11.5c0.6-0.7-0.1-2.5-0.2-3.8c-0.1-1.3-0.3-2.6-0.2-3.9
		c0.6-11.5,1.3-23.1,2-34.6c0.7-10.8,1.4-21.6,2.1-32.3c0.1-1.8,0.4-3.6,0.5-5.5c1-20.6,2.3-41.1,2.9-61.7
		c0.4-14.1,0.3-28.3-0.1-42.5c-0.2-7.4-1.8-14.8-2.4-22.3c-0.8-10.3-1.2-20.5-1.8-30.8c-0.8-13.9-1.8-27.9-2.3-41.8
		c-0.5-14.3-1-28.7-0.4-43c0.3-6.9-3.5-11.6-6-16.9c-1.7-3.5-6-3.7-9.8-2c-12.4,5.7-24.2,12.3-34.1,22.2
		c-6.9,6.8-15.9,11.6-22.6,18.6c-7.6,7.8-14.4,16.6-20.3,25.7c-6.3,9.7-13.8,17.5-23,24.5c-7.3,5.6-13.1,13.1-19.4,19.9
		c-4.2,4.5-8,9.3-12.1,13.8c-7,7.7-14.2,15.3-21.3,22.9c-6.5,7-13,13.9-19.4,21c-2.8,3.1-5.3,6.4-8.2,9.4c-1.8,1.8-4.2,3-6,4.8
		c-4.2,4.1-7.9,8.9-12.3,12.6c-7.7,6.5-15.6,13-23.9,18.7c-18.6,12.7-35.9,26.9-50.6,44.1c-3,3.5-6.5,6-10.4,6.1
		c-6.3-7.8-6.6-17.6-13.6-24.5c-4-3.9-5.6-10.1-8.8-14.9c-1.8-2.7-4.9-4.6-7.1-7.1c-2.6-2.9-5-6.1-7.5-9.1
		c-6.6-7.6-13.3-15.1-19.7-22.7c-3.1-3.7-6.1-7.6-8.7-11.7c-8.4-13.2-21.7-21.7-31.7-33.3c-3-3.5-7.2-6.2-9.5-10.1
		c-4.3-7.3-11.9-10.9-17.2-17.1c-5.5-6.4-12.4-11.6-18.5-17.5c-5.6-5.5-10.9-11.4-16.2-17.2c-7.2-7.8-14.2-15.7-21.4-23.6
		c-0.8-0.9-2.2-1.6-2.3-2.5c-0.9-7-7.1-9.4-11.2-13.6c-0.8-0.8-2.1-2-1.9-2.7c1-5.2-3.6-8-6.1-10c-4.6-3.7-5.7-9.1-8.7-13.3
		c-3.2-4.5-4.1-10.7-6.7-15.8C1893.6,498.3,1890.9,496.1,1888.8,493.8z"/>
	<path class="st0" d="M1837.2,253.4c-1.3,3.7-3,7.2-3.7,10.9c-2.3,12.6-4.1,25.4-6.4,38c-1.1,6-3,11.8-4.2,17.8
		c-1.5,7.3-3.2,14.6-3.7,22c-0.9,13.6-0.7,27.3-1.5,40.9c-0.8,14.4-2.4,28.8-3.4,43.1c-0.7,9.5-0.7,19-1.3,28.5
		c-1.4,21.9-3.1,43.7-4.5,65.6c-0.3,4.2,1.1,8.5,1,12.7c-0.1,8.5-0.9,16.9-1,25.4c-0.1,4.5,0.9,8.9,0.9,13.4
		c0.1,5.6-0.5,11.2-0.3,16.8c0.1,3.4,1.4,6.7,1.4,10.1c-0.1,7.1-0.7,14.2-1.1,21.2c-0.7,13.3-1.6,26.6-2.1,39.8
		c-0.8,19.3-1.2,38.6-2.1,57.9c-0.9,18.9-2.4,37.8-3.6,56.7c-0.8,13.1-1.3,26.2-2.4,39.3c-1.6,19.5-3.7,39-5.5,58.5
		c-1,10.9-2,21.8-3.2,32.7c-1,8.6-2.5,17.1-3.5,25.6c-1.9,16.3-6.8,32.2-4.9,48.9c0.5,4.7-0.2,9.7-1.3,14.3c-5,21-4.8,42.3-4.6,63.6
		c0.2,25.5,0.6,50.9,0.8,76.4c0,2.2-1.2,4.3-1.6,5.9c0,3.1,0,5.9,0,8.6c0,1.1-0.3,2.3-0.1,3.4c1.9,8.6-0.4,16.9-1.5,25.3
		c-0.6,4.3-3.2,4.1-5.5,1.8c-5.5-5.5-10.6-11.4-15.8-17.2c-2.7-3-5.8-5.7-7.6-9.2c-1.9-3.8-3.1-8.3-3.5-12.6
		c-0.6-6.6-0.3-13.2-0.4-19.8c-0.1-7.1-0.6-14.2-0.5-21.3c0.1-4.1,1.3-8.1,1.5-12.1c0.2-8.4,0.1-16.8,0.1-25.3
		c0-4.9,0.2-9.8,0.3-14.7c0.3-18.5,0.5-37,1-55.5c0.2-7.5,1.6-15,2.1-22.5c0.5-6.2,0.6-12.4,0.8-18.7c0.2-8.8-0.1-17.5,0.4-26.3
		c0.7-11.3,1.8-22.6,3.1-33.8c0.9-7.7,3-15.2,3.7-22.9c1.6-17.7,2.4-35.5,4-53.2c0.7-7.6,2.8-15.2,3.8-22.8
		c0.6-4.7-0.3-9.7,0.5-14.3c4.2-24,5.4-48.2,5.6-72.5c0.2-20.8,3-41.4,6.9-61.8c2.7-14.3,3.6-29,5.4-43.6c1.5-13,3.4-26,4.6-39.1
		c0.9-10.1,0.7-20.3,1.4-30.4c0.7-10.1,1.9-20.2,2.9-30.3c0.2-2.3,0.4-4.6,0.4-6.9c-0.1-13.1,0.1-26.1,3.8-38.8
		c0.5-1.8-1.2-4.2-0.9-6.2c1.8-14,2.8-28.2,6.3-41.8c3.5-13.5,5.3-26.8,5.5-40.7c0.1-7.8,2.5-15.6,4-23.4c0.7-3.6,2-7,2.4-10.6
		c1.6-15.3,4.5-30.2,10.8-44.3c3.9-8.8,7.1-17.7,6.6-27.8C1826.7,249.4,1828.9,248.6,1837.2,253.4z"/>
	<path class="st0" d="M2397.3,549.7c1,13.4,2.2,27.8,3.2,42.2c0.3,3.8,0.5,7.7,0.3,11.5c-1.3,17.9,2.1,35.5,3.6,53.2
		c0.9,10.4,0.5,20.9,0.3,31.4c-0.2,8.4-1.8,16.9-1.3,25.3c1.2,20.2-1.5,40.2-2.3,60.3c-0.5,12.1-0.5,24.3-1.3,36.4
		c-0.7,11.4-2.3,22.8-3.4,34.2c-0.3,3.5-0.3,7-0.5,10.5c-1.3,20.1-2.7,40.1-3.9,60.2c-1.4,21.6-2.5,43.1-3.9,64.7
		c-0.6,9.3-1.3,18.6-2.6,27.8c-2.2,14.8-4.8,29.5-7.7,44.2c-0.9,4.8-3.2,9.4-4.7,14.2c-4.8,14.7-9.4,29.5-14.2,44.2
		c-1.1,3.5-2.6,6.9-4.3,10.1c-9,16.9-14.9,34.8-18.3,53.6c-0.7,4.1-0.5,8.3-1,12.4c-0.3,2.1-1.4,5.7-2.2,5.7c-2.8,0-6.5-0.3-8.2-2.1
		c-4-4.3-7.2-9.3-10.2-14.3c-0.8-1.4-0.3-3.8,0-5.7c0.9-5.6,2.2-11.1,3-16.6c1.8-12.3,3.4-24.6,5-37c2-15.3,3.8-30.6,5.7-46
		c0.1-0.7,0-1.3,0.1-2c2.3-11.3,4.4-22.6,6.9-33.9c3-13.9,6.5-27.7,9.5-41.6c2.7-12.3,5.6-24.6,7.2-37c1.3-9.9,0.9-19.9,1.1-29.9
		c0.3-22.6,0.4-45.3,0.7-67.9c0.1-7.4,0.9-14.8,0.9-22.1c0.1-20.6,5.2-40.6,7.9-60.9c1.8-13.5,0.7-27.4,1.2-41.1
		c0.3-7.5,1.2-15.1,1.6-22.6c0.3-6.2,0.2-12.4,0.2-18.6c0-7.1-0.1-14.2,0-21.3c0-1,1.1-1.9,1.6-2.8c0.6-1,1.9-2.3,1.6-2.9
		c-1.8-3.9-0.4-7.7-0.3-11.6c0.1-7.5-2.9-15.4,2.7-22.3c0.5-0.6,0.4-1.8,0.3-2.8c-0.4-4.2-1.6-8.4-1.2-12.4
		c0.7-7.8,2.5-15.5,3.4-23.2c0.3-2.5-0.7-5.2-0.7-7.8c0-5.1,0.9-10.3,0.3-15.3c-0.7-6.5,0-12.3,2.9-18.2c0.5-1.1-0.6-3.1-1.2-4.7
		c-2.5-7.7-0.5-14.7,6-19.6c2.8-2.1,5.8-3.9,8.9-5.5c3.5-1.9,7.5,0.5,7.6,4.6C2397.4,533.8,2397.3,541.2,2397.3,549.7z"/>
	<path class="st0" d="M2456.1,269.7c-6.6,6.9-12.5,13.9-19.1,20.1c-6.8,6.3-14.2,12-21.7,17.6c-4.5,3.4-9.7,5.7-14.4,9
		c-13.1,9.2-23.6,20.9-32.7,34c-12,17.4-24.1,34.7-36.4,51.9c-2.1,2.9-5.2,5.2-8.1,7.3c-11.1,7.8-17.2,19.7-25.6,29.7
		c-5.7,6.8-11.1,14.2-17.7,20.1c-9.6,8.6-17.2,18.5-23.7,29.4c-2.9,4.7-6,8.9-10.8,12.1c-3.9,2.6-6.4,7.1-9.8,10.5
		c-8.6,8.7-17.7,17.1-26.1,26.1c-13.8,14.9-27.3,29.9-40.6,45.2c-9.3,10.8-18.3,21.9-27,33.1c-6.1,7.8-11.6,16.2-17.3,24.3
		c-0.7,1-1.4,1.9-2.2,3c-10.1-4.7-9.5-15.6-14.6-22.4c2.8-3.2,6-6.2,8.4-9.7c5.7-8.3,10.8-17,16.4-25.3c3.4-5,7.2-9.7,10.9-14.5
		s8.7-9,11.1-14.4c4-8.9,12.9-13.2,17.9-20.9c3.7-5.7,7.6-11.2,11.3-16.8c0.5-0.8,0.8-1.9,1.4-2.6c5.7-6.6,11.6-13.1,17.2-19.8
		c9.1-10.9,18-22.1,27.1-33c4.2-5.1,8.8-9.8,13.3-14.6c6.3-6.8,12.7-13.5,18.9-20.4c5.7-6.2,10.7-13.1,16.8-18.9
		c14.4-14,29.3-27.6,43.9-41.4c0.8-0.8,1.4-1.8,2.2-2.7c3-3.2,5.3-6.8,9.6-9c3.8-2,6.5-6.3,9.6-9.6c1.9-2.1,3.5-4.5,5.5-6.4
		c13.4-12.7,26.9-25.3,40.2-38c4.1-3.9,7.5-8.6,11.6-12.5c7.1-6.8,14.3-13.7,21.9-19.8c2.4-2,6.5-2.8,9.8-2.7
		C2441,267.6,2448.4,268.8,2456.1,269.7z"/>
	<path class="st0" d="M1891.2,558.2c0.4-6.8,0.7-13.6,1.4-20.3c0.2-1.4,2.1-3.7,3.3-3.8c2-0.1,4.8,0.7,6,2.1
		c2.8,3.4,4.7,7.6,7.4,11.1c3.6,4.7,7.8,9,11.5,13.6c4.6,5.6,8.8,11.6,13.5,17.1c3.7,4.3,8.1,8,12,12.2c2.2,2.3,4.1,5,6.2,7.5
		c3,3.7,6,7.4,9.2,11c0.9,1,2.8,1.3,3.9,2.2c3,2.4,5.9,4.9,8.7,7.5c4.1,3.8,8.3,7.7,12.2,11.8c9.9,10.3,19.6,20.8,29.5,31.1
		c5.7,5.9,12,11.3,17.3,17.5c6.7,7.9,12.6,16.6,19.2,24.6c3.7,4.4,8.1,8.2,12.2,12.3c3.9,3.9,8.1,7.7,11.5,12
		c3.2,4,5.7,8.6,8.6,12.9c2.5,3.6,5.4,7,7.6,10.8c3.2,5.5,6.2,11.2,8.9,17c0.4,0.9-0.6,3.7-1.4,3.8c-6.7,1.5-13.4,0.9-18.6-3.9
		c-10.7-10-21.1-20.3-31.5-30.5c-11.4-11.2-22.7-22.4-33.8-33.8c-5-5.2-9.3-11.2-14.1-16.7c-3.6-4.1-7.5-8-11.4-11.9
		c-12.8-12.8-25.8-25.3-38.3-38.4c-4.5-4.7-7.7-10.7-11.7-16.1c-1.2-1.6-2.9-2.6-4.3-4c-7.3-7.2-14.9-14.2-21.8-21.8
		c-6.8-7.5-13.3-15.5-19.2-23.7c-2.6-3.6-3.6-8.4-5.3-12.6C1890.4,558.4,1890.8,558.3,1891.2,558.2z"/>
	<path class="st0" d="M1000,672c10.2,1.5,11.9,9.7,14.5,16c6.1,14.8,11,30.1,16.2,45.3c3.1,9.1,5.3,18.5,8.4,27.6
		c4.5,13,9.6,25.8,14.4,38.7c1.6,4.4,3.3,8.7,4.7,13.1c2.2,6.9,4.8,13.8,5.9,21c2,12.8,8.8,23.6,13.3,35.3
		c4.4,11.8,10.3,23,14.7,34.8c4.3,11.6,7.6,23.6,11.3,35.5c0.7,2.2,1.7,4.4,2.5,6.5c1.5,3.7,4.2,5.4,8.2,5.1c3.9-0.2,5.9-2.3,6.9-6
		c3.9-13.5,8-27,12.1-40.4c0.7-2.4,1.9-4.6,2.8-6.9c4.4-11.9,8.6-23.9,13.3-35.7c4.5-11.3,9.6-22.3,14.2-33.6
		c1.8-4.4,2.6-9.3,4.2-13.8c4-10.8,8.1-21.7,12.5-32.4c5-11.9,11.2-23.3,15.5-35.3c3.7-10.1,5.3-21,8.2-31.5
		c1.9-6.9,4.7-13.5,6.6-20.4c2-7.6,3.3-15.5,5.2-23.2c1.2-5,3.1-9.9,4.2-14.9c1.9-8.8,3.6-17.7,5-26.5c1.8-10.8,3.1-21.6,4.9-32.4
		c1.9-11.4,4-22.8,6-34.2c0.2-1.3,0.1-2.7,0.1-4c0-12.4-0.3-24.8,0.3-37.2c0.3-7.1,2.4-14.2,3.3-21.3c0.4-3.4-0.2-6.9,0.1-10.4
		c1.2-12.1,2.4-24.2,3.9-36.3c1.5-12.1,3.6-24.1,5.1-36.2c0.5-4.2-0.1-8.5,0.4-12.8c0.4-3.8,2.1-7.5,2.5-11.3
		c0.9-9.1,1.3-18.3,2-27.5c0.6-9.3,1.3-18.6,1.9-27.8c0.1-2,0.1-4,0.3-6c0.7-5.5,1.7-11,2.3-16.5c0.6-4.5,0.9-9.1,1.3-13.7
		c0.7-9.5,1.5-18.8,4.4-28c3.1-9.6,5.5-19.5,8.2-29.2c0-0.2,0.1-0.3,0.1-0.5c0.6-3.3,0.1-7.7,2.1-9.5c1.9-1.8,6.3-1,9.6-1.2
		c12.9-0.6,25.9-1.3,38.8-1.8c5-0.2,7.3,2.3,6.3,7.2c-1.4,7.5-0.4,14.7,0.2,22.2c0.8,9.1-0.9,18.4-1.8,27.6
		c-1.4,14.5-2.9,29.1-4.3,43.6c-0.9,9.4-1.8,18.9-2.8,28.3c-1.7,16.8-3.5,33.5-5.3,50.3c-1.1,10.7-1.9,21.3-5.3,31.7
		c-2.5,7.8-2.1,16.4-3.6,24.6c-2.6,14-3.7,28.1-8.5,41.8c-2.8,8-3.1,16.9-4.9,25.3c-1.4,6.5-3.4,12.8-5,19.2
		c-2.9,11.5-5.5,23.1-8.5,34.7c-1.6,6.4-3.6,12.7-5.5,19c-2.8,9.2-5.9,18.3-8.5,27.5c-2.6,8.9-4.3,18.1-7.1,26.8
		c-2.3,7.1-6.1,13.7-8.7,20.8c-1.1,3.1-0.3,6.8-1,10.1c-1.5,7.8-3.5,15.5-5.2,23.2c-1,4.7-1.8,9.5-3,14.1c-2.7,11-5.7,22-8.3,33
		c-3,12.6-5.5,25.3-8.4,37.8c-1.1,4.6-3,9.1-4.2,13.7c-3.1,11.7-5.9,23.4-9,35.1c-1.7,6.3-3.8,12.5-5.5,18.9
		c-2.3,8.7-4.2,17.6-6.6,26.2c-2.6,9-5.7,17.9-8.4,26.9c-1.8,6.1-3.4,12.4-5,18.6c-2.5,9.3-5.8,18.5-7.1,27.9
		c-1.9,13.6-8.3,25.6-11.9,38.6c-3.8,13.8-8.9,27.3-13.1,41c-1.9,6.2-3.1,12.6-4.9,18.8c-2.7,9.4-5.5,18.7-8.4,28
		c-3.7,11.9-7.4,23.7-11.4,35.5c-1.9,5.6-4.6,11-6.5,16.7c-1.1,3.3-3.8,3.7-6.2,3.3c-1.3-0.2-3.3-2.5-3.3-3.9
		c-0.1-8.6-4.8-15.6-7.4-23.3c-2.9-8.7-7.4-16.8-10.9-25.3c-3-7.5-5.8-15.1-8.4-22.7c-4.8-14-10-27.9-13.8-42.1
		c-3.4-12.8-8.4-25.1-11.8-37.9c-1.3-5.1-3.4-10-5.1-15c-1.2-3.7-2.6-7.5-3.5-11.3c-4.1-16.2-8-32.5-12-48.8
		c-1.8-7.2-4.1-14.3-5.6-21.5c-1.3-6.2-1.3-12.7-2.8-18.8c-1.4-6-1.5-12.4-5.7-17.7c-1.6-2-2.5-4.7-2.9-7.3
		c-1.9-11.2-6.2-21.4-11-31.6c-4.8-10.3-8.7-21.1-13.2-31.6c-0.9-2.1-2.4-4.1-4.1-5.5c-5-4.3-10-2.6-11.8,3.6
		c-4.1,13.8-7.9,27.7-12.5,41.4c-2.6,7.8-6.7,15-9.4,22.7c-2.7,7.8-4.3,16-6.8,23.9c-2.3,7.4-5.3,14.6-7.9,21.9
		c-4.9,14.1-9.8,28.2-14.6,42.3c-3.7,10.8-7.1,21.8-11.4,32.4c-5.1,12.7-11,25.2-16.4,37.7c-0.9,2-1.4,4.1-2.1,6.1
		c-0.6,1.9-1,4-2,5.6c-6.1,9.1-8.7,19.8-12.9,29.7c-2.6,6.1-5.7,11.9-8.3,17.9c-4.3,9.8-8.2,19.8-12.5,29.6
		c-2.4,5.5-5.1,10.9-7.8,16.3c-4.2,8.3-8.4,16.6-12.7,24.7c-0.7,1.4-2.9,3.5-3.6,3.2c-2-0.9-4.5-2.4-5.1-4.2
		c-2.9-9.2-5.6-18.6-7.8-28c-2.8-12.2-5.1-24.5-7.7-36.7c-1.7-7.6-3.6-15.2-5.5-22.8c-2.5-10-5.1-20-7.4-30
		c-2-8.7-3.8-17.4-5.6-26.1c-2.6-12.7-5-25.4-7.6-38c-1.6-7.6-3.7-15.2-5.4-22.8c-3-13.5-6-27-8.8-40.5c-2.3-11-4.3-22.2-6.6-33.2
		c-2.2-10.5-4.8-20.9-6.8-31.5c-2.2-11.1-4-22.2-5.9-33.4c-1.1-6.2-2.3-12.4-3.3-18.7c-2.5-16.1-4.7-32.1-7.2-48.2
		c-1-6.5-2.9-12.9-3.8-19.4c-1.5-11.8-2.7-23.6-3.8-35.4c-0.6-6.6-0.5-13.2-1.2-19.8c-0.7-6.9-2-13.8-3.1-20.6
		c-1.5-9.7-3.7-19.3-4.1-29c-0.4-8.7-2.1-17.1-2.6-25.7c-0.4-6.9-1.8-13.8-2.8-20.6c-1.8-13.1-3.5-26.2-5.6-39.3
		c-2-12.6-5.6-25-6.4-37.6c-0.4-6.9-2.4-13.4-3-20.2c-0.9-10.4-3-20.7-4.4-31c-1.3-9.9-2.5-19.7-3.4-29.6
		c-1.1-11.2-2.4-22.4-2.8-33.6c-0.3-9.9,0.7-19.8,0.8-29.8c0.1-8.5-0.3-17.1-0.4-25.7c0-3.9,0.3-7.8,0.4-11.7
		c0.1-4.7,0.2-9.4,0.3-14c0.1-5.9,0.3-11.8,0.3-17.8c-0.1-16.6-0.1-33.3-0.4-49.9c-0.1-5-0.8-10.1-1.3-15.5
		c20.6-2.7,40.3-5.3,60-7.9c4.1-0.5,7.7,0.4,8.3,5c1.4,10.6,2.4,21.3,3.6,32c0.2,2.3,0.4,4.7,0.6,7c0.3,5.1,0.4,10.2,0.7,15.4
		c0.4,7.4,0.5,14.9,1.5,22.2c1.5,11.1,3.8,22.1,5.6,33.2c0.8,5.4,1.1,10.8,1.9,16.2c1.1,7.9,2.2,15.8,3.6,23.6
		c2.2,11.9,4.6,23.7,6.9,35.5c2.6,13,5.4,26,7.9,39.1c0.7,3.5,0.4,7.2,0.9,10.8c1.5,10.4,3.4,20.7,4.9,31c2.5,17.4,4.8,34.9,7,52.4
		c0.5,4.2,0.3,8.5,0.8,12.7c1.8,14,4.2,27.9,5.7,41.9c1.3,12.5,1.7,25.1,2.6,37.7c0.5,6.3,1.2,12.5,1.9,18.7
		c0.4,4.4,0.8,8.9,1.4,13.3c1.4,10.6,2.9,21.2,4.3,31.9c0.7,5.6,1.3,11.2,1.8,16.8c1.1,13.3,1.5,26.7,3.3,40c2.2,16.1,5.4,32,8.2,48
		c0.3,1.8,0.1,3.7,0.4,5.5c0.7,4.7,1.4,9.5,2.4,14.2c2.4,11.8,4.8,23.7,7.5,35.4c1.4,6.1,3.4,12.1,5.1,18.2c1.4,5,2.7,10,4.1,14.9
		c0.9,3.2,0.9,7.3,5.4,8c4.9,0.8,9-1.7,11.4-6.3c6.6-12.8,12.8-25.8,20.1-38.2c6.3-10.7,13.8-20.7,20.8-31.1
		c7.8-11.6,15.9-23,23.3-34.8c8.9-14.2,17.4-28.7,25.7-43.3c3.5-6.1,6-12.7,9.1-19c1.9-3.8,4.2-7.5,6.3-11.2
		C992.2,686.6,996.2,679.2,1000,672z"/>
	<path class="st0" d="M1116.7,917.3c-3.2,0-5.3,0-7.6,0c-0.1-11.7-8.4-20.5-12.3-31c-3-7.9-3.9-16.1-0.2-24.7
		c3.3-7.8,4.6-16.5,6.6-24.8c4.6-19,9.2-38,13.8-57c3.3-13.7,6.7-27.4,9.6-41.2c2.3-11,3.5-22.2,5.8-33.1
		c2.2-10.3,5.6-20.3,8.1-30.6c1.2-4.8,1.3-9.8,2.4-14.6c1.7-6.9,4.3-13.6,5.8-20.5c1.6-7,2.3-14.2,3.4-21.3c0.1-0.8,0.6-1.5,0.9-2.3
		c6.7-16.1,12.4-32.3,14.9-49.7c1.5-10.2,5.9-19.9,8.5-30c1.9-7.5,2.8-15.3,4.5-22.9c2.2-9.5,5.1-18.8,7.2-28.2
		c2.3-10,3.8-20.2,6-30.3c2.9-13.4,6.1-26.7,8.9-40.2c1.4-6.5,2-13.1,3.2-19.7c1.1-6.3,2.5-12.5,3.8-18.7c0.3-1.3,0.5-2.6,0.7-3.9
		c1.1-7.4,2.2-14.7,3.2-22.1c0.6-4.7,1-9.4,1.4-14.2c0.1-0.7-0.1-1.3-0.1-2c1.1-7.6,2.4-15.2,3.3-22.8c1.3-11.1,2.3-22.2,3.5-33.3
		c0.5-4.9,1.1-9.9,1.9-14.8c1.9-11.1,3.8-22.2,5.9-33.2c0.3-1.5,2.2-3.6,3.5-3.7c1.9-0.1,4.3,0.8,5.7,2.2c4.4,4.2,8.2,9.1,12.7,13
		c5.7,5,7.1,10.4,3.4,17c-0.4,0.7-1.2,1.5-1.2,2.1c0.5,6.2-2.7,11.4-4.1,17.1c-1.5,5.9-2.2,12-2.9,18.1c-0.7,5.7-0.7,11.5-1.3,17.2
		c-1.2,12.3-2.6,24.6-3.7,36.9c-0.8,8.4-1.2,16.8-1.7,25.3c-0.3,4.6-0.1,9.3-0.5,13.9c-0.8,10.1-1.7,20.1-3,30.2
		c-1.4,10.7-3.8,21.2-5.1,31.9c-1.5,12.7-2.2,25.4-3.4,38.1c-1.2,12.9-2.7,25.7-3.9,38.6c-0.5,5.2-0.3,10.5-0.8,15.8
		c-1.4,17.4-2.7,34.9-4.4,52.3c-1.2,12-2.8,24-4.7,36c-0.9,5.5-2.8,10.9-4.2,16.3c-2.3,8.7-5.4,17.2-6.6,26
		c-1.7,12.9-5,25.3-9.4,37.5c-4.7,13.1-7.9,26.6-12.2,39.8c-2,6.1-5,11.9-7.8,17.7c-3.6,7.6-7.7,14.8-9.1,23.5
		c-1.1,6.8-6.4,12.9-7.4,19.7c-0.9,6.4-7.6,10.5-5.4,17.9c0.7,2.3-1.6,5.6-2.9,8.3c-2.5,5.1-5.5,9.9-7.9,14.9
		c-1.9,4-3.4,8.1-4.9,12.3c-2.5,7-4.8,14-7.3,21c-1.4,3.9-3.1,7.7-4.7,11.5C1122.1,905.3,1119.2,911.7,1116.7,917.3z"/>
	<path class="st0" d="M824.1,1137.4c-1.6,1-3.3,2.2-5.4,3.5c-3.8-5.8-7.4-11.2-10.8-16.6c-7.1-11.2-14.1-22.5-21.3-33.7
		c-6.8-10.6-10.8-22.3-13.9-34.4c-4.8-18.7-10.1-37.2-15.1-55.8c-2.8-10.4-5.4-20.9-8.1-31.3c-3.3-12.3-6.8-24.5-9.9-36.8
		c-1.2-4.6-1.9-9.4-2.5-14.2c-2.2-16.6-4.1-33.3-6.3-49.9c-0.6-4.6-2.4-8.9-3.2-13.5c-0.7-3.6-0.6-7.4-1.1-11
		c-0.9-7.4-2-14.7-2.8-22.1c-1-8.2-1.5-16.5-2.7-24.7c-1.2-8.7-2.9-17.3-4.2-26c-0.3-1.7-0.1-3.5,0-5.2s1-3.6,0.4-4.9
		c-2-4-1.6-8-1.8-12.3c-0.4-10.4-1.6-20.7-2.8-31c-1.1-9.4-2.9-18.7-4.1-28c-1.5-11.5-2.6-23-4.2-34.5c-0.7-4.8-2.6-9.5-3.6-14.3
		c-1-5.1-1.4-10.4-2.1-15.6c-1.1-8.7-2.2-17.4-3.4-26.1c-0.9-6.9-2-13.8-3-20.7c-1.1-7.2-2.5-14.4-3.3-21.6c-0.9-8-1-16.1-1.8-24.2
		c-0.8-8.6-2.1-17.2-2.9-25.8c-1.1-12.1-2-24.3-2.8-36.4c-0.7-10.2-0.9-20.5-1.7-30.7c-0.6-7.8-1.9-15.5-2.4-23.3
		c-1.3-21.6-2-43.2-3.4-64.8c-0.7-10.6-2.8-21-3.9-31.6c-1.2-11.2-2.1-22.4-2.8-33.6c-0.7-9.9-1.2-19.9-1.4-29.8
		c-0.2-6.3,0.2-12.6,0.5-18.9c0.5-13.2,1-26.4,1.7-39.6c0.1-2.4,1.1-4.8,1.9-7.7c1.2,0.5,2.5,0.7,3.1,1.4c5.7,6,11.5,11.9,16.9,18.2
		c1.3,1.5,1.9,4,1.9,6.1c-0.3,10.5-1.2,20.9-1.2,31.3c0,13,1,26,1.1,39.1c0,13.4-0.7,26.9-0.9,40.3c-0.1,11,0.1,21.9,0.2,32.9
		c0,6.3-0.1,12.7,0.3,19c0.7,9.8,1.4,19.6,2.7,29.4c2.1,16.8,4.4,33.5,6.9,50.3c1.4,9.5,3.4,18.9,4.9,28.4
		c1.9,11.6,3.8,23.2,5.3,34.9c2.1,15.4,4.6,30.7,7.7,46c1.7,8.6,1.7,17.5,2.6,26.2c1.6,16.4,3.1,32.8,5,49.1
		c1.6,13.7,4,27.4,5.7,41.1c1.1,8.6,1.3,17.4,2.3,26.1c0.8,7.1,2.5,14,3.4,21.1c1.3,10.1,2.3,20.3,3.6,30.4c0.4,2.8,1.5,5.4,2,8.2
		c2.2,11.8,4,23.6,6.4,35.3c2.4,11.5,5.4,22.9,7.8,34.4c2.5,12,4.4,24.1,6.8,36.1c2.2,10.5,5.1,20.9,7.2,31.4
		c1.6,7.8,2.4,15.7,3.7,23.5c0.7,4.4,1.7,8.8,2.8,13.2c3.5,14.7,7.2,29.3,10.7,44c2.6,10.7,5,21.5,7.7,32.2
		c3.5,13.9,7.5,27.8,10.8,41.8c1.7,7,2.3,14.1,3.4,21.2c0.2,1.5,0.6,2.9,1,4.4c3.2,13.8,6.3,27.7,9.5,41.5
		C821.9,1131.5,823,1134.2,824.1,1137.4z"/>
	<path class="st0" d="M992.8,811c3.9,6.3,7.9,12.6,11.7,19.1c0.7,1.2,0.4,3,0.9,4.4c2.4,7.2,5.2,14.3,7.3,21.6
		c1.7,5.9,2.7,12.1,4.1,18.1c0.5,1.9,1.9,3.5,2.3,5.4c1.7,8.3,2.9,16.6,4.6,24.9c1.7,8,3.7,16,5.5,24c0.8,3.3,1.3,6.7,2.1,10.1
		c3.4,12.8,6.5,25.6,10.3,38.2c6.3,20.9,13.1,41.6,19.6,62.5c4.5,14.5,8.1,29.3,13.1,43.6c4,11.5,9.6,22.5,14.4,33.7
		c2.1,4.9,4.1,9.8,5.9,14.8c1.5,4.2,3,8.5,3.9,12.8c0.4,2.1-0.8,4.5-1.3,6.8c-1.9-0.5-4-0.5-5.6-1.4c-8.5-5.1-16.8-10.5-25.3-15.6
		c-4.1-2.5-6.5-5.1-7.2-10.6c-0.9-7.4-4.2-14.5-6.6-21.7c-2.7-8.3-5.5-16.6-8.4-24.9c-0.8-2.3-2.3-4.4-3.2-6.8
		c-5.9-16.2-11.6-32.4-17.5-48.5c-3-8.3-6.2-16.5-9.5-24.6c-5.2-12.7-10.7-25.3-15.9-38c-5.5-13.3-11.1-26.7-16.3-40.1
		c-2.4-6.1-3.7-12.7-5.8-18.9c-2.1-6.5-4.8-12.7-6.8-19.2c-1-3.2-1.8-6.9-1.1-10c1.9-8.4,4.5-16.6,7.1-24.8c2.3-7.5,5.1-15,7.1-22.6
		C984,817.2,985.9,811.9,992.8,811z"/>
	<path class="st0" d="M996,661.1c-5.7,8.2-11.3,16-16.6,24.1c-2,3.1-3,6.9-4.7,10.3c-2.1,4.1-4.6,8-6.7,12.1
		c-3.9,7.4-7,15.3-11.7,22.2c-8.3,12.3-12.3,26.7-20.4,39c-2.3,3.6-5.6,6.6-7.4,10.4c-4.8,10.1-12.8,17.7-19,26.7
		c-6.9,10.1-12.5,21.1-19.7,31c-4.6,6.2-5.5,15.7-15.7,18.2c-6.6-19-10.4-38.8-14.6-58.8c3.9-1.8,7-3,8.4-8.3
		c1.5-5.8,6.8-10.7,10.5-15.9c5.4-7.7,11-15.2,16.3-23c5.1-7.5,9.9-15.3,15-22.9c7.5-11.3,15-22.6,22.5-33.9
		c4.5-6.7,8.8-13.6,13.8-20c2.5-3.2,6.3-5.3,9.1-8.3c5.3-5.7,10.5-11.5,15.4-17.5c4.2-5.1,8.9-5.9,13.3-1
		C988.1,650.5,991.9,655.9,996,661.1z"/>
	<path class="st0" d="M1262,224.3c-4.4-8.2-8.8-16.5-13.6-25.5c2.6-0.8,4.1-1.6,5.6-1.7c9.8-0.9,18.8-4.3,28-7.5
		c6.3-2.2,13.3-3.5,20-3.6c3.6-0.1,8.5,2.4,10.5,5.4c4.9,7,8.6,14.8,12.6,22.5c1.5,3,1.1,6.3-3.1,6.7c-9.7,1-19.5,1.8-29.2,2.3
		c-6.3,0.3-12.6-0.3-18.9-0.2c-3.4,0-6.9,0.5-10.3,0.7C1263,223.7,1262.5,224,1262,224.3z"/>
	<path class="st0" d="M758,188.6c-13.2,1.7-26.1,3.4-39,5.2c-2.1,0.3-4.3,0.8-6.3,1.5c-10.8,3.9-17.7-2.3-24.2-9.3
		c-2.6-2.8-4.9-5.8-7.3-8.7c-2.3-2.9-1.3-4.5,2-5.2c10.8-2.2,21.6-4.9,32.5-6.5c4.1-0.6,9.4-0.2,12.8,2
		C738.6,173.9,748,181.3,758,188.6z"/>
	<path class="st0" d="M165.3,948c9-4,16.4-7.7,24.1-10.7c3.6-1.4,7.7-1.6,11.7-1.9c1-0.1,2.8,0.9,3.2,1.9c2.5,5.4,4.9,10.8,6.9,16.4
		c3.9,11.1,7.6,22.3,14.8,31.9c0.6,0.7,1.1,1.6,1.3,2.5c3.4,14.6,9,28.3,16.5,41.2c3.1,5.3,5.6,10.9,8.9,16
		c3.9,6.1,8,12.2,12.7,17.7c5.3,6.3,10.9,12.5,17.2,17.7c12.1,10,26.5,15.7,42,17.9c10.7,1.5,21.4,2.5,32.2,3.4
		c11.2,0.8,22.1-0.5,32.8-4.2c11.8-4.1,24.1-6.9,36-10.8c10.8-3.5,21.7-7,30.8-14.5c5.1-4.2,10.9-7.3,16.4-10.9
		c12.1-8.1,21.9-18.3,27.5-31.9c3.6-8.8,8.1-17.6,9.6-26.9c2.3-15.2,1-30.5-2.5-45.9c-3-13.1-8.7-24.9-13.3-37.3
		c-4.6-12.4-9.2-24.9-14.7-36.9c-4.4-9.8-10.1-19-15.3-28.4c-2.1-3.9-4.1-8-6.7-11.6c-2.7-3.9-5.8-7.5-8.8-11
		c-2.8-3.3-5.9-6.3-8.8-9.5c-7.2-8-14-16.4-21.6-23.9c-10-9.8-20-19.9-31.4-28c-17.1-12.2-35.4-22.7-53.1-34.1
		c-8.1-5.2-15.9-10.8-23.7-16.3c-9.4-6.5-19-12.8-27.9-19.9c-6-4.7-13.4-8.4-16.3-16.4c-0.3-0.7-1.1-1.4-1.8-1.7
		c-8.2-3.5-12.1-10.9-17-17.6c-5.3-7.3-7.7-16.5-15.8-22c-2.3-1.5-2.6-5.9-3.8-9c-4.7-11.5-10.9-22.7-13.7-34.6
		c-3.5-14.9-7.2-30.1-5.6-45.7c0.1-1,0.2-2,0.2-3c-0.1-13.7-0.2-27.4-0.5-41.1c-0.3-16.6-0.9-33.1-1.2-49.7
		c-0.1-5.1,0.8-10.2,1.1-15.3c0.4-6.4,0.7-12.9,1.1-19.3c0.7-9.9,2-19.8,2-29.7c0-19.9,4.4-39.2,7.1-58.7c2.2-15.6,4-31.4,7.4-46.8
		c4.7-20.8,10-41.6,18.9-61.1c2.8-6.3,7-12,10.7-17.8c4.3-6.8,8.5-13.7,13.3-20.2c2.8-3.8,6.4-7.2,10.2-10.1
		c5.2-4.1,10.6-8,16.2-11.4c11-6.6,22.8-11.5,35.5-14c12.7-2.6,25.3-1.9,38-0.1c11.4,1.6,22.4,4.6,32.8,9.7
		c9.9,4.9,20.2,9,30.3,13.6c10.3,4.7,17.9,12.6,24,21.9c6.1,9.3,12,18.7,17.6,28.2c4.3,7.3,8.7,14.6,9.7,23.4
		c0.5,4.3,1.9,8.5,2.2,12.8c0.1,1.6-1.1,4.2-2.5,4.7c-12.6,5.4-25.2,10.6-38,15.5c-4.4,1.7-9.5,4.2-13.6-0.9c-2.4-3-4.8-6-6.9-9.2
		c-11.3-17.4-26.2-30.1-46.2-36.6c-7.3-2.4-14.8-2.7-22-0.7c-12,3.3-24.3,7.1-33.6,15.7c-8.2,7.6-18,13.9-22.7,25
		c-4.8,11.2-11.4,21.6-16,32.9c-2.6,6.4-3,13.7-4.3,20.5c-0.8,4.2-1.5,8.4-2.3,12.6c-2.7,13.2-0.1,26.4,0.2,39.6
		c0.2,7.9-1.1,15.9-1.1,23.8c-0.1,14.1-0.2,28.1,0.4,42.2c0.4,9.1,1.3,18.3,3.1,27.2c2,10.3,5.1,20.4,7.7,30.6
		c0.1,0.5,0.7,0.9,0.6,1.3c-2.1,10.6,4.2,19.5,6.1,29.2c1.9,10,6.3,19.6,10.4,29c6.5,15.1,12.8,30.4,20.6,44.8
		c7.2,13.4,15.9,26,24.2,38.8c6.4,9.9,13,19.6,20.1,29c5.3,7.1,11.5,13.7,17.2,20.5c9.5,11.3,18.9,22.6,28.5,33.8
		c6.1,7.1,12.4,13.8,18.6,20.8c8.4,9.4,16.7,18.9,25.3,28.2c5.6,6.1,11.9,11.5,17.4,17.7c7.9,8.9,15.5,18.1,23,27.4
		c11.5,14.3,19.5,30.8,28,46.8c6.4,12.1,10.7,25.2,13.8,38.6c2.9,12.6,5.7,25.2,8.6,37.7c1.3,5.5,3.1,10.9,3.9,16.4
		c1.1,7.5,2.3,15.1,2.2,22.6c-0.1,8.9-0.8,18-2.4,26.8c-1.3,7.1-5.1,13.7-6.7,20.8c-3.7,16.3-11.6,30.2-22.1,42.9
		c-1.2,1.4-2.5,2.9-3.1,4.5c-6.6,16.9-20.9,26.7-34,37.7c-6.4,5.4-12.4,11.1-18.9,16.2c-5.4,4.2-10.9,8.3-17,11.2
		c-15.4,7.5-31,14.6-46.8,21.1c-6.8,2.8-14.4,3.7-21.7,5c-11.6,2.1-23.2,4-34.9,5.6c-8.2,1.1-16.5,1.6-24.7,2.1
		c-14.2,0.9-27.8-1.9-39.6-9.5c-9.6-6.3-18.2-14.3-26.6-22.2c-5.5-5.2-10.5-11.2-14.5-17.7c-5.7-9.3-10.4-19.1-15.1-29
		c-4.2-8.8-7.8-17.8-11.5-26.7c-2.4-5.7-4.3-11.6-6.7-17.3c-5.6-13.3-11.3-26.6-17.2-39.8c-4.6-10.5-9.7-20.7-14.1-31.3
		c-3.8-9.1-7.3-18.4-10.3-27.9C166,957.5,165.9,952.1,165.3,948z"/>
	<path class="st0" d="M206.5,618.3c-6.9-1.2-9.6-5.6-11.9-9.6c-13.2-22.4-20.4-47.1-26.6-72.1c-4.8-19.6-5.3-39.7-7.7-59.6
		c-0.9-7.6-1.5-15.3-1.7-22.9c-0.3-13.1-0.2-26.2,0-39.2c0.4-18.3,0.2-36.6,1.8-54.8c1.3-14,4.7-27.8,7.6-41.6c2-9.4,4.5-18.7,7-28
		s5.2-18.5,8.1-27.7c1.6-4.9,3.9-9.5,5.8-14.3c3.7-9.2,6.9-18.6,11.2-27.4c2.8-5.7,7.1-10.8,10.8-16c6.3-8.9,12.3-18,19.2-26.4
		c5.6-7,11.8-13.5,18.4-19.5c5.4-4.8,11.5-9,17.8-12.6c7-4,14.4-7.5,22-10.1c8.7-3,17.8-4.4,26.6-7.1c12.5-3.8,24.7-1.8,37,1
		s24.7,4.7,37,7.7c12.4,3,24.3,7.7,34.8,15.2c5.8,4.2,11,9.3,16.5,14c-2.2,2-3.6,1.9-7.2,0.3c-15.3-6.7-30.2-14.9-46.2-19.5
		c-15-4.3-31-5.7-46.7-6.5c-13-0.6-25.8,2.5-37.5,9c-10.1,5.7-20.8,10.3-30.4,16.6c-9.9,6.5-17.2,15.9-22.9,26.4
		c-1.2,2.2-3.2,4-4.6,6.2c-4.9,7.4-9.6,14.8-14.4,22.3c-0.1,0.1-0.3,0.3-0.3,0.4c0.5,8.8-6.7,15-7.9,23.4
		c-1.2,8.3-4.7,16.2-6.6,24.5c-2.8,11.9-5.3,23.9-7.3,36c-2.7,15.7-4.7,31.5-7.1,47.2c-0.6,4-2.1,7.9-2.9,11.9
		c-0.4,2-0.1,4.2-0.3,6.3c-1,10.3-2.1,20.6-3.1,30.9c-0.3,3.8-0.2,7.6-0.4,11.4c-0.4,10.6-1.1,21.2-1.2,31.7
		c-0.1,14.7,0.2,29.3,0.3,44c0,5.6-0.1,11.2-0.1,16.7c0.1,10.2,0.2,20.4,0.4,30.5c0.2,9.6,0.5,19.1,1.1,28.7
		c0.4,7.2,0.9,14.5,2.3,21.6c1.4,7.1,4.1,13.9,6.2,20.8C204.5,611.1,205.3,614.2,206.5,618.3z"/>
	<path class="st0" d="M136.6,927.4c5.1,7.2,9.9,13.2,13.9,19.7c1.5,2.4,1.9,5.6,2.1,8.6c1,12.2,6.5,22.9,11.1,33.8
		c2.9,7,6.5,13.8,9.4,20.8c1.7,3.9,2.3,8.3,4,12.2c2.9,6.9,5.6,14.1,9.5,20.5c5,8.2,7.2,17.3,10.4,26.1c2.7,7.3,5.9,14.3,9.1,21.5
		c5.2,11.8,10,23.8,15.8,35.3c4.1,8,9.5,15.4,14.8,22.8c4.3,6.1,9.2,11.7,14,17.4c3.1,3.7,6.6,7.2,9.4,11.5
		c-8.5-0.5-16.4-2.2-23.2-7c-13.6-9.5-24.3-21.7-34-35.1c-4.2-5.7-9.3-10.7-13.3-16.5s-7.1-12.3-10.7-18.4
		c-9.5-16.6-17.4-34.1-23.3-52.2c-4.3-13.3-6.4-27.3-10.1-40.9c-3.7-13.6-8.4-26.9-12-40.5c-3-11.3-3.5-23-1.4-34.6
		C132.4,930.4,135.1,929,136.6,927.4z"/>
	<path class="st0" d="M482,942.1c7-0.1,7.7,5.6,8.5,9.6c2.7,13,6,26.1,6.2,39.2c0.2,12-2.2,24.3-9.7,34.9
		c-4.1,5.7-6.1,12.9-10.5,18.4c-4.2,5.3-10,9.5-15.4,13.7c-5.8,4.5-11.5,9.2-18,12.4c-11.2,5.4-22.8,10.2-34.5,14.2
		c-11.8,4-23.9,7-36,9.8c-4.3,1-9.1,0.2-13.6,0.2c-0.2-0.5-0.3-1-0.5-1.5c1-0.8,1.8-2.2,2.9-2.4c20.9-4.2,38.8-15.2,56.2-26.5
		c13.2-8.6,25.3-19.3,34.1-32.5c6.1-9.1,10.8-19.2,14.9-29.3c3.7-9.2,4.9-19.4,8.5-28.6C479.2,963.3,478.7,952.2,482,942.1z"/>
	<path class="st0" d="M337.3,259.1c2.1-1.3,4.1-2.9,6.3-3.8c5.5-2.2,10.9-5.4,16.6-5.9c17.2-1.7,31.5,4.5,42.2,18.3
		c4.9,6.4,9.7,12.9,15.2,20.3c-2.4,0.4-3.8,0.7-5.1,0.8c-5.6,0.3-11.3,1-16.9,0.6c-2.9-0.2-6.2-1.6-8.3-3.5
		c-8.6-7.9-17.8-14.9-28.7-19.3c-4.7-1.9-9.9-2.5-14.9-3.8c-2-0.5-4-1.2-5.9-1.8C337.6,260.4,337.4,259.8,337.3,259.1z"/>
	<path class="st0" d="M146.5,916.7c4-1.2,7.2-2.7,10.4-3.1c9.5-1.1,19.1-1.6,28.6-2.6c3.8-0.4,6,1,7.5,4.2c1.4,3,3,6,4.7,9.3
		c-10.8,2.4-21,4.6-31.2,7.1c-4,1-7.1,0.3-9.8-2.9C153.7,924.9,150.5,921.3,146.5,916.7z"/>
	<path class="st0" d="M1487.6,232.3c4.4-0.2,9.8-1,15.1-0.7c14.8,0.8,29.5,2.2,44.2,3.2c15.9,1.1,31.9,2,47.8,3
		c12.4,0.8,16.4,8,16.1,19.4c-0.3,10.3-2.7,20.6-4.1,30.9c-0.1,0.7-0.4,1.4-0.3,2c2.4,7.9-1.6,14.4-4.3,21.3c-2.3,6-3.2,12.5-5,18.8
		c-3.6,12.9-7.4,25.7-11.1,38.5c-2.6,9.1-5.6,18.1-7.5,27.4c-4.2,20.4-8,40.8-11.5,61.3c-1.5,8.7-1.4,17.6-2.4,26.3
		c-0.7,6.1-2.5,12.1-2.9,18.2c-0.9,11.9-1.6,23.9-1.5,35.9c0.1,15.1-2.2,29.7-5.3,44.5c-2.7,13.1-4.1,26.7-4.2,40.1
		c-0.2,17.6-1.7,34.8-6.9,51.7c-1,3.1-1.1,6.6-1.1,9.9c0,11.2-0.8,22.2-2.5,33.3c-2,12.6-1.1,25.6-2.5,38.3
		c-1.7,15.7-4.5,31.2-6.7,46.8c-1.2,8.4-2.1,16.8-3.1,25.2c-2.1,19.2-4.5,38.2-9.4,57c-3.5,13.1-3.4,27.3-4,41.1
		c-0.5,10.1,0.6,20.3,0.4,30.4c-0.1,5.2-1.4,10.5-1.8,15.7c-0.6,8.3-0.7,16.6-1.4,24.8c-0.7,8.2-1.7,16.4-2.6,24.6
		c-0.6,5.2-1.7,10.3-1.9,15.6c-1,17.3-3.9,34.3-7.1,51.3c-1.5,8.2-0.5,17-0.3,25.4c0.5,17.6,1.5,35.2,1.7,52.8
		c0.1,8.8-0.9,17.6-1.8,26.3c-0.1,1.3-2.3,3.4-3.6,3.4c-17.6,0.5-35.2,0.7-52.8,1c-11.8,0.2-13.4-3.7-14.7-15.7
		c-0.5-4.1,0.1-8.4-0.8-12.4c-2.1-8.4-1.2-16.6-0.5-25c0.3-3.8-1-7.8-1.2-11.7c-0.1-3.9,0.4-7.8,0.5-11.6c0.1-2.9,0-5.9,0.1-8.8
		c0.7-12.7,1.5-25.4,2.1-38.1c0.1-2.8-0.7-5.6-0.9-8.4c-0.1-2.2,0.2-4.5,0.3-6.7c0.1-0.8,0.5-1.6,0.5-2.4
		c-0.7-11.1-1.5-22.2-2.2-33.4c-0.1-0.9,0.4-1.9,0.6-2.8c2.5-12.2,1.9-24.7,2.6-37.1c0.2-4.1-1.3-8.3-1.1-12.4
		c0.6-14.3,1.9-28.5,2.3-42.8c0.3-13.3-0.4-26.7-0.2-40c0.1-8.9,1.3-17.8,1.7-26.7c0.4-10.5,0.5-20.9,0.8-31.4
		c0.2-6.6,0.7-13.3,1-19.9c0.5-13.1,0.8-26.2,1.5-39.3c0.2-4.4,2.1-8.7,2.1-13.1c0.4-21,1.2-42,5.5-62.7c0.7-3.3-0.1-6.9-0.2-10.4
		c-0.1-5.6,0-11.2,3.8-15.8c0.3-0.3,0.1-1.2-0.1-1.8c-3.5-9.5-0.5-18.9-0.1-28.4c0.2-5.3,0.4-10.6,0.7-15.9
		c0.5-7.9,0.6-15.9,1.6-23.8c1.9-14.2,4.4-28.4,6.4-42.6c0.8-5.6,0.7-11.2,1.2-16.8c0.7-7.4,1.7-14.8,2.5-22.1
		c0.7-6.4,1.5-12.8,1.8-19.3c0.7-12.5,0.7-25.1,1.7-37.6c0.9-10.6,2.8-21.2,4-31.8c1-8.6,1.5-17.2,2.3-25.8
		c0.9-8.9,1.8-17.7,2.9-26.6c0.6-5.1,1.9-10.1,2.6-15.2c2.1-13.4,4.5-26.8,6-40.3c1.1-10.2,0.8-20.5,1.6-30.7
		c0.8-9.4,2.5-18.7,3.4-28C1486.4,252.4,1486.8,243.1,1487.6,232.3z"/>
	<path class="st0" d="M1416.2,1133.7c-10.7-4.5-12-13.5-14.2-21.8c-2.3-9-3-18.5-5.6-27.4c-3.1-10.7-1.7-21.4-2.1-32.1
		c-0.5-12.5-1.6-24.9-2.4-37.3c-0.2-3.1,0-6.3,0-9.5c-0.1-10.4-0.4-20.8-0.2-31.2c0.1-9.7,0.8-19.4,1.1-29c0.1-2.8-0.5-5.6-0.4-8.4
		c0.3-6.9,0.8-13.7,1.2-20.6c0.2-3.4,0-6.7,0-10.1c-0.1-5.2-0.5-10.5-0.2-15.7c0.3-6.3,1.1-12.5,1.7-18.8c0.1-1.5,0.5-3,0.6-4.5
		c1.6-19.5,2.9-39,4.7-58.4c1.6-16.9,4.4-33.8,5.8-50.8c0.8-9.4-0.5-19-0.6-28.5c0-3.7,0.7-7.5,0.9-11.2c0.4-5.7,0.6-11.4,0.9-17.1
		c0.2-3.3,0-6.7,0.7-9.9c1.5-7.1-0.4-13.9-0.5-20.9c0-2.3,0.9-4.5,1.1-6.8c0.4-4.9,0.7-9.8,1-14.7c0.7-10.6,1.4-21.2,2.1-31.9
		c0.4-6,0.6-11.9,1-17.9c0.6-8.2,1.4-16.4,1.9-24.6c0.8-11.6,1.4-23.1,2.2-34.7c0.3-5.1,0.5-10.3,1-15.4c1.1-10.3,2.8-20.6,3.8-31
		c1.6-17.6,2.6-35.2,4.1-52.9c0.4-5.4,1.5-10.8,2.1-16.3c0.4-3.8,0.8-7.5,0.8-11.3c-0.1-12.2,3.8-23.7,6-35.6
		c1.7-9.3,1.4-19.2,4.6-27.9c4.1-11.1,4.2-22.5,5.9-33.7c2.2-14.8,3.1-29.8,4.5-44.8c0-0.2,0.1-0.3,0-0.5
		c-1.6-7.6,2.7-14.2,3.6-21.3c0.9-7,1.2-14.1,1.8-21.2c0-0.5-0.1-1-0.1-1.5c0-3,0.6-6.4,4-6.3c2.2,0.1,4.7,2.4,6.3,4.4
		c2.2,2.8,3.8,6.1,5.5,9.2c0.5,0.8,0.7,1.9,0.7,2.8c-0.2,6.5-0.7,12.9-0.9,19.4c-0.5,14.4-4.3,28.3-5.5,42.6
		c-0.7,8.4-0.2,16.9-0.9,25.3c-0.8,9.8-0.8,19.6-3.6,29.3c-2.6,9.3-3.5,19.3-3.7,29c-0.4,16.9-1.8,33.6-5.3,50.2
		c-1.9,9.1-1.4,18.8-1.9,28.2c-0.6,10.8-1.1,21.5-1.9,32.3c-0.7,9.7-1.5,19.4-2.6,29.1c-1.5,13.9-3.4,27.8-4.9,41.7
		c-0.7,6.5-1.2,13.1-1.6,19.7c-0.8,12.2-1.3,24.4-2.3,36.6c-0.8,9.4-2.5,18.7-3.3,28.1c-0.7,7.4-0.5,14.9-1.2,22.3
		c-0.8,9.2-2,18.4-3.1,27.6c-0.2,2.1-0.5,4.2-0.5,6.3c-0.3,8.4-0.5,16.9-1,25.3c-0.9,15.3-1.9,30.7-2.8,46
		c-0.7,11.1-1.7,22.2-2.2,33.2c-0.7,14.6-1,29.2-1.4,43.9c-0.4,12.1-0.8,24.1-1.1,36.2c-0.4,14.8-1,29.6-1,44.5
		c0,12.1,0.8,24.2,1,36.3c0.1,3.9-1,7.7-1.2,11.6c-0.3,4.9-0.4,9.8-0.2,14.7c0.2,6.5,1.1,12.9,1.2,19.3c0.1,4.6-0.8,9.2-1,13.8
		c-0.2,6.4-0.2,12.8-0.3,19.3c-0.1,10.7-0.2,21.4-0.2,32.1c0,1.8,0.8,3.5,1,5.3c0.9,11.4-0.1,22.7-1.5,34c-0.3,2.7-0.1,5.5-0.3,8.3
		C1417.4,1130.2,1416.7,1131.9,1416.2,1133.7z"/>
	<path class="st0" d="M1600.3,227.2c-2.8,0-5.2,0.1-7.6,0c-1.6-0.1-3.3-0.5-4.9-0.5c-20.3-1.1-40.7-2.2-61-3.3
		c-13.7-0.7-27.3-1.8-41-2.1c-9.6-0.2-15.2-7.9-17-15.4c-1.1-4.6,3.5-4.5,6.4-4.9c4.8-0.7,9.6-0.7,14.4-1c13.1-1,26.1-2.3,39.2-3.1
		c14.4-0.9,28.8-1.2,43.2-2.1c7.7-0.5,12.5,3.4,16,9.6c4,6.8,8,13.6,11.9,20.5C1600.3,225.1,1600.2,225.7,1600.3,227.2z"/>
</g>
</svg>
